<svg xmlns="http://www.w3.org/2000/svg" width="32" height="32" viewBox="0 0 32 32" fill="none">
<path d="M14.9822 29.6414C15.5936 29.9903 16.3356 29.9704 16.9447 29.6175C20.5141 27.5488 26.5597 22.9196 28.9521 16.9287C32.5081 9.02963 24.1585 2.72412 18.3877 7.25926C17.8144 7.70985 17.1005 8.22245 16.5839 8.71334C16.306 8.97735 15.8207 9.0043 15.5346 8.74918C14.8487 8.13742 13.8323 7.3801 13.1707 6.93247C8.25099 3.60399 -0.700497 7.9915 3.11789 17.3554C4.50099 21.5115 11.0335 27.3883 14.9822 29.6414Z" fill="url(#paint0_linear_7320_6102)"/>
<path d="M14.9822 29.6414C15.5936 29.9903 16.3356 29.9704 16.9447 29.6175C20.5141 27.5488 26.5597 22.9196 28.9521 16.9287C32.5081 9.02963 24.1585 2.72412 18.3877 7.25926C17.8144 7.70985 17.1005 8.22245 16.5839 8.71334C16.306 8.97735 15.8207 9.0043 15.5346 8.74918C14.8487 8.13742 13.8323 7.3801 13.1707 6.93247C8.25099 3.60399 -0.700497 7.9915 3.11789 17.3554C4.50099 21.5115 11.0335 27.3883 14.9822 29.6414Z" fill="url(#paint1_radial_7320_6102)"/>
<path d="M14.9822 29.6414C15.5936 29.9903 16.3356 29.9704 16.9447 29.6175C20.5141 27.5488 26.5597 22.9196 28.9521 16.9287C32.5081 9.02963 24.1585 2.72412 18.3877 7.25926C17.8144 7.70985 17.1005 8.22245 16.5839 8.71334C16.306 8.97735 15.8207 9.0043 15.5346 8.74918C14.8487 8.13742 13.8323 7.3801 13.1707 6.93247C8.25099 3.60399 -0.700497 7.9915 3.11789 17.3554C4.50099 21.5115 11.0335 27.3883 14.9822 29.6414Z" fill="url(#paint2_radial_7320_6102)"/>
<path d="M14.9822 29.6414C15.5936 29.9903 16.3356 29.9704 16.9447 29.6175C20.5141 27.5488 26.5597 22.9196 28.9521 16.9287C32.5081 9.02963 24.1585 2.72412 18.3877 7.25926C17.8144 7.70985 17.1005 8.22245 16.5839 8.71334C16.306 8.97735 15.8207 9.0043 15.5346 8.74918C14.8487 8.13742 13.8323 7.3801 13.1707 6.93247C8.25099 3.60399 -0.700497 7.9915 3.11789 17.3554C4.50099 21.5115 11.0335 27.3883 14.9822 29.6414Z" fill="url(#paint3_radial_7320_6102)"/>
<path d="M14.9822 29.6414C15.5936 29.9903 16.3356 29.9704 16.9447 29.6175C20.5141 27.5488 26.5597 22.9196 28.9521 16.9287C32.5081 9.02963 24.1585 2.72412 18.3877 7.25926C17.8144 7.70985 17.1005 8.22245 16.5839 8.71334C16.306 8.97735 15.8207 9.0043 15.5346 8.74918C14.8487 8.13742 13.8323 7.3801 13.1707 6.93247C8.25099 3.60399 -0.700497 7.9915 3.11789 17.3554C4.50099 21.5115 11.0335 27.3883 14.9822 29.6414Z" fill="url(#paint4_linear_7320_6102)"/>
<path d="M14.9822 29.6414C15.5936 29.9903 16.3356 29.9704 16.9447 29.6175C20.5141 27.5488 26.5597 22.9196 28.9521 16.9287C32.5081 9.02963 24.1585 2.72412 18.3877 7.25926C17.8144 7.70985 17.1005 8.22245 16.5839 8.71334C16.306 8.97735 15.8207 9.0043 15.5346 8.74918C14.8487 8.13742 13.8323 7.3801 13.1707 6.93247C8.25099 3.60399 -0.700497 7.9915 3.11789 17.3554C4.50099 21.5115 11.0335 27.3883 14.9822 29.6414Z" fill="url(#paint5_linear_7320_6102)"/>
<path d="M14.9822 29.6414C15.5936 29.9903 16.3356 29.9704 16.9447 29.6175C20.5141 27.5488 26.5597 22.9196 28.9521 16.9287C32.5081 9.02963 24.1585 2.72412 18.3877 7.25926C17.8144 7.70985 17.1005 8.22245 16.5839 8.71334C16.306 8.97735 15.8207 9.0043 15.5346 8.74918C14.8487 8.13742 13.8323 7.3801 13.1707 6.93247C8.25099 3.60399 -0.700497 7.9915 3.11789 17.3554C4.50099 21.5115 11.0335 27.3883 14.9822 29.6414Z" fill="url(#paint6_radial_7320_6102)"/>
<path d="M14.9822 29.6414C15.5936 29.9903 16.3356 29.9704 16.9447 29.6175C20.5141 27.5488 26.5597 22.9196 28.9521 16.9287C32.5081 9.02963 24.1585 2.72412 18.3877 7.25926C17.8144 7.70985 17.1005 8.22245 16.5839 8.71334C16.306 8.97735 15.8207 9.0043 15.5346 8.74918C14.8487 8.13742 13.8323 7.3801 13.1707 6.93247C8.25099 3.60399 -0.700497 7.9915 3.11789 17.3554C4.50099 21.5115 11.0335 27.3883 14.9822 29.6414Z" fill="url(#paint7_radial_7320_6102)"/>
<path d="M14.9822 29.6414C15.5936 29.9903 16.3356 29.9704 16.9447 29.6175C20.5141 27.5488 26.5597 22.9196 28.9521 16.9287C32.5081 9.02963 24.1585 2.72412 18.3877 7.25926C17.8144 7.70985 17.1005 8.22245 16.5839 8.71334C16.306 8.97735 15.8207 9.0043 15.5346 8.74918C14.8487 8.13742 13.8323 7.3801 13.1707 6.93247C8.25099 3.60399 -0.700497 7.9915 3.11789 17.3554C4.50099 21.5115 11.0335 27.3883 14.9822 29.6414Z" fill="url(#paint8_radial_7320_6102)"/>
<path d="M14.9822 29.6414C15.5936 29.9903 16.3356 29.9704 16.9447 29.6175C20.5141 27.5488 26.5597 22.9196 28.9521 16.9287C32.5081 9.02963 24.1585 2.72412 18.3877 7.25926C17.8144 7.70985 17.1005 8.22245 16.5839 8.71334C16.306 8.97735 15.8207 9.0043 15.5346 8.74918C14.8487 8.13742 13.8323 7.3801 13.1707 6.93247C8.25099 3.60399 -0.700497 7.9915 3.11789 17.3554C4.50099 21.5115 11.0335 27.3883 14.9822 29.6414Z" fill="url(#paint9_radial_7320_6102)"/>
<defs>
<linearGradient id="paint0_linear_7320_6102" x1="4.13067" y1="11.2995" x2="28.4868" y2="11.2995" gradientUnits="userSpaceOnUse">
<stop offset="0.0812458" stop-color="#276AF7"/>
<stop offset="1" stop-color="#438FFF"/>
</linearGradient>
<radialGradient id="paint1_radial_7320_6102" cx="0" cy="0" r="1" gradientUnits="userSpaceOnUse" gradientTransform="translate(25.8435 27.9725) rotate(46.7332) scale(49.8548 22.8043)">
<stop offset="0.49399" stop-color="#2A6DFE" stop-opacity="0"/>
<stop offset="0.579924" stop-color="#2D5CBA"/>
</radialGradient>
<radialGradient id="paint2_radial_7320_6102" cx="0" cy="0" r="1" gradientUnits="userSpaceOnUse" gradientTransform="translate(27.745 8.21235) rotate(119.571) scale(24.9275 24.9429)">
<stop offset="0.225474" stop-color="#2D7FF9"/>
<stop offset="1" stop-color="#307EF2" stop-opacity="0"/>
</radialGradient>
<radialGradient id="paint3_radial_7320_6102" cx="0" cy="0" r="1" gradientUnits="userSpaceOnUse" gradientTransform="translate(13.3154 12.479) rotate(76.7068) scale(16.6569 9.65952)">
<stop offset="0.198648" stop-color="#6099FF"/>
<stop offset="0.755379" stop-color="#2E75F9" stop-opacity="0"/>
</radialGradient>
<linearGradient id="paint4_linear_7320_6102" x1="14.3924" y1="12.1639" x2="25.5814" y2="12.1639" gradientUnits="userSpaceOnUse">
<stop offset="0.0552486" stop-color="#327AF9" stop-opacity="0"/>
<stop offset="0.197917" stop-color="#327AF9"/>
<stop offset="0.668508" stop-color="#327AF9"/>
<stop offset="1" stop-color="#327AF9" stop-opacity="0"/>
</linearGradient>
<linearGradient id="paint5_linear_7320_6102" x1="8.82995" y1="34.2681" x2="20.0634" y2="16.5942" gradientUnits="userSpaceOnUse">
<stop offset="0.432579" stop-color="#3A53FB"/>
<stop offset="0.823982" stop-color="#347DFA" stop-opacity="0"/>
</linearGradient>
<radialGradient id="paint6_radial_7320_6102" cx="0" cy="0" r="1" gradientUnits="userSpaceOnUse" gradientTransform="translate(25.8741 10.9648) rotate(123.69) scale(13.488 9.42314)">
<stop offset="0.163623" stop-color="#69A2FF"/>
<stop offset="1" stop-color="#357EFA" stop-opacity="0"/>
</radialGradient>
<radialGradient id="paint7_radial_7320_6102" cx="0" cy="0" r="1" gradientUnits="userSpaceOnUse" gradientTransform="translate(21.316 0.741408) rotate(125.756) scale(11.1082 3.89595)">
<stop offset="0.588879" stop-color="#2D5CBA"/>
<stop offset="1" stop-color="#5270B5" stop-opacity="0"/>
</radialGradient>
<radialGradient id="paint8_radial_7320_6102" cx="0" cy="0" r="1" gradientUnits="userSpaceOnUse" gradientTransform="translate(8.33427 7.84189) rotate(136.69) scale(45.366 35.2994)">
<stop offset="0.604116" stop-color="#3E74FF" stop-opacity="0"/>
<stop offset="0.643539" stop-color="#8F87FF"/>
</radialGradient>
<radialGradient id="paint9_radial_7320_6102" cx="0" cy="0" r="1" gradientUnits="userSpaceOnUse" gradientTransform="translate(19.8698 7.64903) rotate(140.059) scale(31.758 44.2348)">
<stop offset="0.604116" stop-color="#3E74FF" stop-opacity="0"/>
<stop offset="0.643539" stop-color="#8F87FF"/>
</radialGradient>
</defs>
</svg>