<svg xmlns="http://www.w3.org/2000/svg" width="32" height="32" viewBox="0 0 32 32" fill="none">
<path d="M13.5525 3.1143C15.0838 1.39068 17.1657 1.665 18.4978 3.1143L19.3103 4.05491C19.5916 4.36096 19.9986 4.51967 20.4129 4.48479L21.8572 4.05491C23.826 3.63287 25.615 5.10162 25.615 7.38287V8.24224C25.6568 8.71136 26.0666 9.02938 26.4898 9.23606L27.7947 9.78131C29.6824 10.7032 30.1541 12.8907 28.7791 14.7266L28.3885 15.2422C28.0381 15.7159 28.1101 16.3376 28.4588 16.8126L28.8494 17.3594C30.2713 19.1094 29.4695 21.5104 27.4611 22.3492L26.3377 22.8184C25.9146 22.9951 25.7489 23.2984 25.6697 23.7501L25.5916 25.2188C25.3181 27.2344 23.528 28.1449 22.0916 27.9415L20.3806 27.4844C19.9697 27.4262 19.4588 27.5626 19.1853 27.9922L18.5681 28.836C17.0369 30.5626 14.9702 30.2755 13.9275 29.2657L12.789 27.8868C12.4909 27.5981 12.115 27.3516 11.6652 27.5214L9.94315 27.9922C8.52148 28.1936 6.84744 27.1006 6.57949 25.69L6.38065 23.6485C6.29994 23.2236 6.01974 22.8635 5.62771 22.6808L4.41973 22.2657C2.6032 21.4192 1.99477 19.3698 3.03778 17.6585L3.71863 16.717C3.99211 16.2683 3.97911 15.7014 3.68535 15.2657L3.17753 14.5469C1.74006 12.5001 2.73392 10.2122 4.86403 9.52633L5.33383 9.37506C5.85236 9.2081 6.35324 8.77748 6.39633 8.23444L6.50095 6.91619C6.67075 4.77644 8.62327 3.54863 10.6769 4.17295L11.3416 4.37501C11.9822 4.62501 12.4841 4.4121 12.8338 4.03126L13.5525 3.1143Z" fill="url(#paint0_linear_18_14752)"/>
<path d="M13.5525 3.1143C15.0838 1.39068 17.1657 1.665 18.4978 3.1143L19.3103 4.05491C19.5916 4.36096 19.9986 4.51967 20.4129 4.48479L21.8572 4.05491C23.826 3.63287 25.615 5.10162 25.615 7.38287V8.24224C25.6568 8.71136 26.0666 9.02938 26.4898 9.23606L27.7947 9.78131C29.6824 10.7032 30.1541 12.8907 28.7791 14.7266L28.3885 15.2422C28.0381 15.7159 28.1101 16.3376 28.4588 16.8126L28.8494 17.3594C30.2713 19.1094 29.4695 21.5104 27.4611 22.3492L26.3377 22.8184C25.9146 22.9951 25.7489 23.2984 25.6697 23.7501L25.5916 25.2188C25.3181 27.2344 23.528 28.1449 22.0916 27.9415L20.3806 27.4844C19.9697 27.4262 19.4588 27.5626 19.1853 27.9922L18.5681 28.836C17.0369 30.5626 14.9702 30.2755 13.9275 29.2657L12.789 27.8868C12.4909 27.5981 12.115 27.3516 11.6652 27.5214L9.94315 27.9922C8.52148 28.1936 6.84744 27.1006 6.57949 25.69L6.38065 23.6485C6.29994 23.2236 6.01974 22.8635 5.62771 22.6808L4.41973 22.2657C2.6032 21.4192 1.99477 19.3698 3.03778 17.6585L3.71863 16.717C3.99211 16.2683 3.97911 15.7014 3.68535 15.2657L3.17753 14.5469C1.74006 12.5001 2.73392 10.2122 4.86403 9.52633L5.33383 9.37506C5.85236 9.2081 6.35324 8.77748 6.39633 8.23444L6.50095 6.91619C6.67075 4.77644 8.62327 3.54863 10.6769 4.17295L11.3416 4.37501C11.9822 4.62501 12.4841 4.4121 12.8338 4.03126L13.5525 3.1143Z" fill="url(#paint1_radial_18_14752)"/>
<path d="M13.5525 3.1143C15.0838 1.39068 17.1657 1.665 18.4978 3.1143L19.3103 4.05491C19.5916 4.36096 19.9986 4.51967 20.4129 4.48479L21.8572 4.05491C23.826 3.63287 25.615 5.10162 25.615 7.38287V8.24224C25.6568 8.71136 26.0666 9.02938 26.4898 9.23606L27.7947 9.78131C29.6824 10.7032 30.1541 12.8907 28.7791 14.7266L28.3885 15.2422C28.0381 15.7159 28.1101 16.3376 28.4588 16.8126L28.8494 17.3594C30.2713 19.1094 29.4695 21.5104 27.4611 22.3492L26.3377 22.8184C25.9146 22.9951 25.7489 23.2984 25.6697 23.7501L25.5916 25.2188C25.3181 27.2344 23.528 28.1449 22.0916 27.9415L20.3806 27.4844C19.9697 27.4262 19.4588 27.5626 19.1853 27.9922L18.5681 28.836C17.0369 30.5626 14.9702 30.2755 13.9275 29.2657L12.789 27.8868C12.4909 27.5981 12.115 27.3516 11.6652 27.5214L9.94315 27.9922C8.52148 28.1936 6.84744 27.1006 6.57949 25.69L6.38065 23.6485C6.29994 23.2236 6.01974 22.8635 5.62771 22.6808L4.41973 22.2657C2.6032 21.4192 1.99477 19.3698 3.03778 17.6585L3.71863 16.717C3.99211 16.2683 3.97911 15.7014 3.68535 15.2657L3.17753 14.5469C1.74006 12.5001 2.73392 10.2122 4.86403 9.52633L5.33383 9.37506C5.85236 9.2081 6.35324 8.77748 6.39633 8.23444L6.50095 6.91619C6.67075 4.77644 8.62327 3.54863 10.6769 4.17295L11.3416 4.37501C11.9822 4.62501 12.4841 4.4121 12.8338 4.03126L13.5525 3.1143Z" fill="url(#paint2_radial_18_14752)"/>
<path d="M13.5525 3.1143C15.0838 1.39068 17.1657 1.665 18.4978 3.1143L19.3103 4.05491C19.5916 4.36096 19.9986 4.51967 20.4129 4.48479L21.8572 4.05491C23.826 3.63287 25.615 5.10162 25.615 7.38287V8.24224C25.6568 8.71136 26.0666 9.02938 26.4898 9.23606L27.7947 9.78131C29.6824 10.7032 30.1541 12.8907 28.7791 14.7266L28.3885 15.2422C28.0381 15.7159 28.1101 16.3376 28.4588 16.8126L28.8494 17.3594C30.2713 19.1094 29.4695 21.5104 27.4611 22.3492L26.3377 22.8184C25.9146 22.9951 25.7489 23.2984 25.6697 23.7501L25.5916 25.2188C25.3181 27.2344 23.528 28.1449 22.0916 27.9415L20.3806 27.4844C19.9697 27.4262 19.4588 27.5626 19.1853 27.9922L18.5681 28.836C17.0369 30.5626 14.9702 30.2755 13.9275 29.2657L12.789 27.8868C12.4909 27.5981 12.115 27.3516 11.6652 27.5214L9.94315 27.9922C8.52148 28.1936 6.84744 27.1006 6.57949 25.69L6.38065 23.6485C6.29994 23.2236 6.01974 22.8635 5.62771 22.6808L4.41973 22.2657C2.6032 21.4192 1.99477 19.3698 3.03778 17.6585L3.71863 16.717C3.99211 16.2683 3.97911 15.7014 3.68535 15.2657L3.17753 14.5469C1.74006 12.5001 2.73392 10.2122 4.86403 9.52633L5.33383 9.37506C5.85236 9.2081 6.35324 8.77748 6.39633 8.23444L6.50095 6.91619C6.67075 4.77644 8.62327 3.54863 10.6769 4.17295L11.3416 4.37501C11.9822 4.62501 12.4841 4.4121 12.8338 4.03126L13.5525 3.1143Z" fill="url(#paint3_radial_18_14752)"/>
<path d="M13.5525 3.1143C15.0838 1.39068 17.1657 1.665 18.4978 3.1143L19.3103 4.05491C19.5916 4.36096 19.9986 4.51967 20.4129 4.48479L21.8572 4.05491C23.826 3.63287 25.615 5.10162 25.615 7.38287V8.24224C25.6568 8.71136 26.0666 9.02938 26.4898 9.23606L27.7947 9.78131C29.6824 10.7032 30.1541 12.8907 28.7791 14.7266L28.3885 15.2422C28.0381 15.7159 28.1101 16.3376 28.4588 16.8126L28.8494 17.3594C30.2713 19.1094 29.4695 21.5104 27.4611 22.3492L26.3377 22.8184C25.9146 22.9951 25.7489 23.2984 25.6697 23.7501L25.5916 25.2188C25.3181 27.2344 23.528 28.1449 22.0916 27.9415L20.3806 27.4844C19.9697 27.4262 19.4588 27.5626 19.1853 27.9922L18.5681 28.836C17.0369 30.5626 14.9702 30.2755 13.9275 29.2657L12.789 27.8868C12.4909 27.5981 12.115 27.3516 11.6652 27.5214L9.94315 27.9922C8.52148 28.1936 6.84744 27.1006 6.57949 25.69L6.38065 23.6485C6.29994 23.2236 6.01974 22.8635 5.62771 22.6808L4.41973 22.2657C2.6032 21.4192 1.99477 19.3698 3.03778 17.6585L3.71863 16.717C3.99211 16.2683 3.97911 15.7014 3.68535 15.2657L3.17753 14.5469C1.74006 12.5001 2.73392 10.2122 4.86403 9.52633L5.33383 9.37506C5.85236 9.2081 6.35324 8.77748 6.39633 8.23444L6.50095 6.91619C6.67075 4.77644 8.62327 3.54863 10.6769 4.17295L11.3416 4.37501C11.9822 4.62501 12.4841 4.4121 12.8338 4.03126L13.5525 3.1143Z" fill="url(#paint4_radial_18_14752)"/>
<path d="M13.5525 3.1143C15.0838 1.39068 17.1657 1.665 18.4978 3.1143L19.3103 4.05491C19.5916 4.36096 19.9986 4.51967 20.4129 4.48479L21.8572 4.05491C23.826 3.63287 25.615 5.10162 25.615 7.38287V8.24224C25.6568 8.71136 26.0666 9.02938 26.4898 9.23606L27.7947 9.78131C29.6824 10.7032 30.1541 12.8907 28.7791 14.7266L28.3885 15.2422C28.0381 15.7159 28.1101 16.3376 28.4588 16.8126L28.8494 17.3594C30.2713 19.1094 29.4695 21.5104 27.4611 22.3492L26.3377 22.8184C25.9146 22.9951 25.7489 23.2984 25.6697 23.7501L25.5916 25.2188C25.3181 27.2344 23.528 28.1449 22.0916 27.9415L20.3806 27.4844C19.9697 27.4262 19.4588 27.5626 19.1853 27.9922L18.5681 28.836C17.0369 30.5626 14.9702 30.2755 13.9275 29.2657L12.789 27.8868C12.4909 27.5981 12.115 27.3516 11.6652 27.5214L9.94315 27.9922C8.52148 28.1936 6.84744 27.1006 6.57949 25.69L6.38065 23.6485C6.29994 23.2236 6.01974 22.8635 5.62771 22.6808L4.41973 22.2657C2.6032 21.4192 1.99477 19.3698 3.03778 17.6585L3.71863 16.717C3.99211 16.2683 3.97911 15.7014 3.68535 15.2657L3.17753 14.5469C1.74006 12.5001 2.73392 10.2122 4.86403 9.52633L5.33383 9.37506C5.85236 9.2081 6.35324 8.77748 6.39633 8.23444L6.50095 6.91619C6.67075 4.77644 8.62327 3.54863 10.6769 4.17295L11.3416 4.37501C11.9822 4.62501 12.4841 4.4121 12.8338 4.03126L13.5525 3.1143Z" fill="url(#paint5_radial_18_14752)"/>
<path d="M13.5525 3.1143C15.0838 1.39068 17.1657 1.665 18.4978 3.1143L19.3103 4.05491C19.5916 4.36096 19.9986 4.51967 20.4129 4.48479L21.8572 4.05491C23.826 3.63287 25.615 5.10162 25.615 7.38287V8.24224C25.6568 8.71136 26.0666 9.02938 26.4898 9.23606L27.7947 9.78131C29.6824 10.7032 30.1541 12.8907 28.7791 14.7266L28.3885 15.2422C28.0381 15.7159 28.1101 16.3376 28.4588 16.8126L28.8494 17.3594C30.2713 19.1094 29.4695 21.5104 27.4611 22.3492L26.3377 22.8184C25.9146 22.9951 25.7489 23.2984 25.6697 23.7501L25.5916 25.2188C25.3181 27.2344 23.528 28.1449 22.0916 27.9415L20.3806 27.4844C19.9697 27.4262 19.4588 27.5626 19.1853 27.9922L18.5681 28.836C17.0369 30.5626 14.9702 30.2755 13.9275 29.2657L12.789 27.8868C12.4909 27.5981 12.115 27.3516 11.6652 27.5214L9.94315 27.9922C8.52148 28.1936 6.84744 27.1006 6.57949 25.69L6.38065 23.6485C6.29994 23.2236 6.01974 22.8635 5.62771 22.6808L4.41973 22.2657C2.6032 21.4192 1.99477 19.3698 3.03778 17.6585L3.71863 16.717C3.99211 16.2683 3.97911 15.7014 3.68535 15.2657L3.17753 14.5469C1.74006 12.5001 2.73392 10.2122 4.86403 9.52633L5.33383 9.37506C5.85236 9.2081 6.35324 8.77748 6.39633 8.23444L6.50095 6.91619C6.67075 4.77644 8.62327 3.54863 10.6769 4.17295L11.3416 4.37501C11.9822 4.62501 12.4841 4.4121 12.8338 4.03126L13.5525 3.1143Z" fill="url(#paint6_radial_18_14752)" fill-opacity="0.6"/>
<path d="M13.5525 3.1143C15.0838 1.39068 17.1657 1.665 18.4978 3.1143L19.3103 4.05491C19.5916 4.36096 19.9986 4.51967 20.4129 4.48479L21.8572 4.05491C23.826 3.63287 25.615 5.10162 25.615 7.38287V8.24224C25.6568 8.71136 26.0666 9.02938 26.4898 9.23606L27.7947 9.78131C29.6824 10.7032 30.1541 12.8907 28.7791 14.7266L28.3885 15.2422C28.0381 15.7159 28.1101 16.3376 28.4588 16.8126L28.8494 17.3594C30.2713 19.1094 29.4695 21.5104 27.4611 22.3492L26.3377 22.8184C25.9146 22.9951 25.7489 23.2984 25.6697 23.7501L25.5916 25.2188C25.3181 27.2344 23.528 28.1449 22.0916 27.9415L20.3806 27.4844C19.9697 27.4262 19.4588 27.5626 19.1853 27.9922L18.5681 28.836C17.0369 30.5626 14.9702 30.2755 13.9275 29.2657L12.789 27.8868C12.4909 27.5981 12.115 27.3516 11.6652 27.5214L9.94315 27.9922C8.52148 28.1936 6.84744 27.1006 6.57949 25.69L6.38065 23.6485C6.29994 23.2236 6.01974 22.8635 5.62771 22.6808L4.41973 22.2657C2.6032 21.4192 1.99477 19.3698 3.03778 17.6585L3.71863 16.717C3.99211 16.2683 3.97911 15.7014 3.68535 15.2657L3.17753 14.5469C1.74006 12.5001 2.73392 10.2122 4.86403 9.52633L5.33383 9.37506C5.85236 9.2081 6.35324 8.77748 6.39633 8.23444L6.50095 6.91619C6.67075 4.77644 8.62327 3.54863 10.6769 4.17295L11.3416 4.37501C11.9822 4.62501 12.4841 4.4121 12.8338 4.03126L13.5525 3.1143Z" fill="url(#paint7_radial_18_14752)" fill-opacity="0.7"/>
<path d="M13.5525 3.1143C15.0838 1.39068 17.1657 1.665 18.4978 3.1143L19.3103 4.05491C19.5916 4.36096 19.9986 4.51967 20.4129 4.48479L21.8572 4.05491C23.826 3.63287 25.615 5.10162 25.615 7.38287V8.24224C25.6568 8.71136 26.0666 9.02938 26.4898 9.23606L27.7947 9.78131C29.6824 10.7032 30.1541 12.8907 28.7791 14.7266L28.3885 15.2422C28.0381 15.7159 28.1101 16.3376 28.4588 16.8126L28.8494 17.3594C30.2713 19.1094 29.4695 21.5104 27.4611 22.3492L26.3377 22.8184C25.9146 22.9951 25.7489 23.2984 25.6697 23.7501L25.5916 25.2188C25.3181 27.2344 23.528 28.1449 22.0916 27.9415L20.3806 27.4844C19.9697 27.4262 19.4588 27.5626 19.1853 27.9922L18.5681 28.836C17.0369 30.5626 14.9702 30.2755 13.9275 29.2657L12.789 27.8868C12.4909 27.5981 12.115 27.3516 11.6652 27.5214L9.94315 27.9922C8.52148 28.1936 6.84744 27.1006 6.57949 25.69L6.38065 23.6485C6.29994 23.2236 6.01974 22.8635 5.62771 22.6808L4.41973 22.2657C2.6032 21.4192 1.99477 19.3698 3.03778 17.6585L3.71863 16.717C3.99211 16.2683 3.97911 15.7014 3.68535 15.2657L3.17753 14.5469C1.74006 12.5001 2.73392 10.2122 4.86403 9.52633L5.33383 9.37506C5.85236 9.2081 6.35324 8.77748 6.39633 8.23444L6.50095 6.91619C6.67075 4.77644 8.62327 3.54863 10.6769 4.17295L11.3416 4.37501C11.9822 4.62501 12.4841 4.4121 12.8338 4.03126L13.5525 3.1143Z" fill="url(#paint8_radial_18_14752)" fill-opacity="0.7"/>
<path d="M13.5525 3.1143C15.0838 1.39068 17.1657 1.665 18.4978 3.1143L19.3103 4.05491C19.5916 4.36096 19.9986 4.51967 20.4129 4.48479L21.8572 4.05491C23.826 3.63287 25.615 5.10162 25.615 7.38287V8.24224C25.6568 8.71136 26.0666 9.02938 26.4898 9.23606L27.7947 9.78131C29.6824 10.7032 30.1541 12.8907 28.7791 14.7266L28.3885 15.2422C28.0381 15.7159 28.1101 16.3376 28.4588 16.8126L28.8494 17.3594C30.2713 19.1094 29.4695 21.5104 27.4611 22.3492L26.3377 22.8184C25.9146 22.9951 25.7489 23.2984 25.6697 23.7501L25.5916 25.2188C25.3181 27.2344 23.528 28.1449 22.0916 27.9415L20.3806 27.4844C19.9697 27.4262 19.4588 27.5626 19.1853 27.9922L18.5681 28.836C17.0369 30.5626 14.9702 30.2755 13.9275 29.2657L12.789 27.8868C12.4909 27.5981 12.115 27.3516 11.6652 27.5214L9.94315 27.9922C8.52148 28.1936 6.84744 27.1006 6.57949 25.69L6.38065 23.6485C6.29994 23.2236 6.01974 22.8635 5.62771 22.6808L4.41973 22.2657C2.6032 21.4192 1.99477 19.3698 3.03778 17.6585L3.71863 16.717C3.99211 16.2683 3.97911 15.7014 3.68535 15.2657L3.17753 14.5469C1.74006 12.5001 2.73392 10.2122 4.86403 9.52633L5.33383 9.37506C5.85236 9.2081 6.35324 8.77748 6.39633 8.23444L6.50095 6.91619C6.67075 4.77644 8.62327 3.54863 10.6769 4.17295L11.3416 4.37501C11.9822 4.62501 12.4841 4.4121 12.8338 4.03126L13.5525 3.1143Z" fill="url(#paint9_radial_18_14752)"/>
<path d="M13.5525 3.1143C15.0838 1.39068 17.1657 1.665 18.4978 3.1143L19.3103 4.05491C19.5916 4.36096 19.9986 4.51967 20.4129 4.48479L21.8572 4.05491C23.826 3.63287 25.615 5.10162 25.615 7.38287V8.24224C25.6568 8.71136 26.0666 9.02938 26.4898 9.23606L27.7947 9.78131C29.6824 10.7032 30.1541 12.8907 28.7791 14.7266L28.3885 15.2422C28.0381 15.7159 28.1101 16.3376 28.4588 16.8126L28.8494 17.3594C30.2713 19.1094 29.4695 21.5104 27.4611 22.3492L26.3377 22.8184C25.9146 22.9951 25.7489 23.2984 25.6697 23.7501L25.5916 25.2188C25.3181 27.2344 23.528 28.1449 22.0916 27.9415L20.3806 27.4844C19.9697 27.4262 19.4588 27.5626 19.1853 27.9922L18.5681 28.836C17.0369 30.5626 14.9702 30.2755 13.9275 29.2657L12.789 27.8868C12.4909 27.5981 12.115 27.3516 11.6652 27.5214L9.94315 27.9922C8.52148 28.1936 6.84744 27.1006 6.57949 25.69L6.38065 23.6485C6.29994 23.2236 6.01974 22.8635 5.62771 22.6808L4.41973 22.2657C2.6032 21.4192 1.99477 19.3698 3.03778 17.6585L3.71863 16.717C3.99211 16.2683 3.97911 15.7014 3.68535 15.2657L3.17753 14.5469C1.74006 12.5001 2.73392 10.2122 4.86403 9.52633L5.33383 9.37506C5.85236 9.2081 6.35324 8.77748 6.39633 8.23444L6.50095 6.91619C6.67075 4.77644 8.62327 3.54863 10.6769 4.17295L11.3416 4.37501C11.9822 4.62501 12.4841 4.4121 12.8338 4.03126L13.5525 3.1143Z" fill="url(#paint10_radial_18_14752)" fill-opacity="0.7"/>
<path d="M13.5525 3.1143C15.0838 1.39068 17.1657 1.665 18.4978 3.1143L19.3103 4.05491C19.5916 4.36096 19.9986 4.51967 20.4129 4.48479L21.8572 4.05491C23.826 3.63287 25.615 5.10162 25.615 7.38287V8.24224C25.6568 8.71136 26.0666 9.02938 26.4898 9.23606L27.7947 9.78131C29.6824 10.7032 30.1541 12.8907 28.7791 14.7266L28.3885 15.2422C28.0381 15.7159 28.1101 16.3376 28.4588 16.8126L28.8494 17.3594C30.2713 19.1094 29.4695 21.5104 27.4611 22.3492L26.3377 22.8184C25.9146 22.9951 25.7489 23.2984 25.6697 23.7501L25.5916 25.2188C25.3181 27.2344 23.528 28.1449 22.0916 27.9415L20.3806 27.4844C19.9697 27.4262 19.4588 27.5626 19.1853 27.9922L18.5681 28.836C17.0369 30.5626 14.9702 30.2755 13.9275 29.2657L12.789 27.8868C12.4909 27.5981 12.115 27.3516 11.6652 27.5214L9.94315 27.9922C8.52148 28.1936 6.84744 27.1006 6.57949 25.69L6.38065 23.6485C6.29994 23.2236 6.01974 22.8635 5.62771 22.6808L4.41973 22.2657C2.6032 21.4192 1.99477 19.3698 3.03778 17.6585L3.71863 16.717C3.99211 16.2683 3.97911 15.7014 3.68535 15.2657L3.17753 14.5469C1.74006 12.5001 2.73392 10.2122 4.86403 9.52633L5.33383 9.37506C5.85236 9.2081 6.35324 8.77748 6.39633 8.23444L6.50095 6.91619C6.67075 4.77644 8.62327 3.54863 10.6769 4.17295L11.3416 4.37501C11.9822 4.62501 12.4841 4.4121 12.8338 4.03126L13.5525 3.1143Z" fill="url(#paint11_radial_18_14752)" fill-opacity="0.7"/>
<path d="M13.5525 3.1143C15.0838 1.39068 17.1657 1.665 18.4978 3.1143L19.3103 4.05491C19.5916 4.36096 19.9986 4.51967 20.4129 4.48479L21.8572 4.05491C23.826 3.63287 25.615 5.10162 25.615 7.38287V8.24224C25.6568 8.71136 26.0666 9.02938 26.4898 9.23606L27.7947 9.78131C29.6824 10.7032 30.1541 12.8907 28.7791 14.7266L28.3885 15.2422C28.0381 15.7159 28.1101 16.3376 28.4588 16.8126L28.8494 17.3594C30.2713 19.1094 29.4695 21.5104 27.4611 22.3492L26.3377 22.8184C25.9146 22.9951 25.7489 23.2984 25.6697 23.7501L25.5916 25.2188C25.3181 27.2344 23.528 28.1449 22.0916 27.9415L20.3806 27.4844C19.9697 27.4262 19.4588 27.5626 19.1853 27.9922L18.5681 28.836C17.0369 30.5626 14.9702 30.2755 13.9275 29.2657L12.789 27.8868C12.4909 27.5981 12.115 27.3516 11.6652 27.5214L9.94315 27.9922C8.52148 28.1936 6.84744 27.1006 6.57949 25.69L6.38065 23.6485C6.29994 23.2236 6.01974 22.8635 5.62771 22.6808L4.41973 22.2657C2.6032 21.4192 1.99477 19.3698 3.03778 17.6585L3.71863 16.717C3.99211 16.2683 3.97911 15.7014 3.68535 15.2657L3.17753 14.5469C1.74006 12.5001 2.73392 10.2122 4.86403 9.52633L5.33383 9.37506C5.85236 9.2081 6.35324 8.77748 6.39633 8.23444L6.50095 6.91619C6.67075 4.77644 8.62327 3.54863 10.6769 4.17295L11.3416 4.37501C11.9822 4.62501 12.4841 4.4121 12.8338 4.03126L13.5525 3.1143Z" fill="url(#paint12_radial_18_14752)"/>
<path d="M13.5525 3.1143C15.0838 1.39068 17.1657 1.665 18.4978 3.1143L19.3103 4.05491C19.5916 4.36096 19.9986 4.51967 20.4129 4.48479L21.8572 4.05491C23.826 3.63287 25.615 5.10162 25.615 7.38287V8.24224C25.6568 8.71136 26.0666 9.02938 26.4898 9.23606L27.7947 9.78131C29.6824 10.7032 30.1541 12.8907 28.7791 14.7266L28.3885 15.2422C28.0381 15.7159 28.1101 16.3376 28.4588 16.8126L28.8494 17.3594C30.2713 19.1094 29.4695 21.5104 27.4611 22.3492L26.3377 22.8184C25.9146 22.9951 25.7489 23.2984 25.6697 23.7501L25.5916 25.2188C25.3181 27.2344 23.528 28.1449 22.0916 27.9415L20.3806 27.4844C19.9697 27.4262 19.4588 27.5626 19.1853 27.9922L18.5681 28.836C17.0369 30.5626 14.9702 30.2755 13.9275 29.2657L12.789 27.8868C12.4909 27.5981 12.115 27.3516 11.6652 27.5214L9.94315 27.9922C8.52148 28.1936 6.84744 27.1006 6.57949 25.69L6.38065 23.6485C6.29994 23.2236 6.01974 22.8635 5.62771 22.6808L4.41973 22.2657C2.6032 21.4192 1.99477 19.3698 3.03778 17.6585L3.71863 16.717C3.99211 16.2683 3.97911 15.7014 3.68535 15.2657L3.17753 14.5469C1.74006 12.5001 2.73392 10.2122 4.86403 9.52633L5.33383 9.37506C5.85236 9.2081 6.35324 8.77748 6.39633 8.23444L6.50095 6.91619C6.67075 4.77644 8.62327 3.54863 10.6769 4.17295L11.3416 4.37501C11.9822 4.62501 12.4841 4.4121 12.8338 4.03126L13.5525 3.1143Z" fill="url(#paint13_radial_18_14752)"/>
<path d="M13.5525 3.1143C15.0838 1.39068 17.1657 1.665 18.4978 3.1143L19.3103 4.05491C19.5916 4.36096 19.9986 4.51967 20.4129 4.48479L21.8572 4.05491C23.826 3.63287 25.615 5.10162 25.615 7.38287V8.24224C25.6568 8.71136 26.0666 9.02938 26.4898 9.23606L27.7947 9.78131C29.6824 10.7032 30.1541 12.8907 28.7791 14.7266L28.3885 15.2422C28.0381 15.7159 28.1101 16.3376 28.4588 16.8126L28.8494 17.3594C30.2713 19.1094 29.4695 21.5104 27.4611 22.3492L26.3377 22.8184C25.9146 22.9951 25.7489 23.2984 25.6697 23.7501L25.5916 25.2188C25.3181 27.2344 23.528 28.1449 22.0916 27.9415L20.3806 27.4844C19.9697 27.4262 19.4588 27.5626 19.1853 27.9922L18.5681 28.836C17.0369 30.5626 14.9702 30.2755 13.9275 29.2657L12.789 27.8868C12.4909 27.5981 12.115 27.3516 11.6652 27.5214L9.94315 27.9922C8.52148 28.1936 6.84744 27.1006 6.57949 25.69L6.38065 23.6485C6.29994 23.2236 6.01974 22.8635 5.62771 22.6808L4.41973 22.2657C2.6032 21.4192 1.99477 19.3698 3.03778 17.6585L3.71863 16.717C3.99211 16.2683 3.97911 15.7014 3.68535 15.2657L3.17753 14.5469C1.74006 12.5001 2.73392 10.2122 4.86403 9.52633L5.33383 9.37506C5.85236 9.2081 6.35324 8.77748 6.39633 8.23444L6.50095 6.91619C6.67075 4.77644 8.62327 3.54863 10.6769 4.17295L11.3416 4.37501C11.9822 4.62501 12.4841 4.4121 12.8338 4.03126L13.5525 3.1143Z" fill="url(#paint14_radial_18_14752)"/>
<path d="M13.5525 3.1143C15.0838 1.39068 17.1657 1.665 18.4978 3.1143L19.3103 4.05491C19.5916 4.36096 19.9986 4.51967 20.4129 4.48479L21.8572 4.05491C23.826 3.63287 25.615 5.10162 25.615 7.38287V8.24224C25.6568 8.71136 26.0666 9.02938 26.4898 9.23606L27.7947 9.78131C29.6824 10.7032 30.1541 12.8907 28.7791 14.7266L28.3885 15.2422C28.0381 15.7159 28.1101 16.3376 28.4588 16.8126L28.8494 17.3594C30.2713 19.1094 29.4695 21.5104 27.4611 22.3492L26.3377 22.8184C25.9146 22.9951 25.7489 23.2984 25.6697 23.7501L25.5916 25.2188C25.3181 27.2344 23.528 28.1449 22.0916 27.9415L20.3806 27.4844C19.9697 27.4262 19.4588 27.5626 19.1853 27.9922L18.5681 28.836C17.0369 30.5626 14.9702 30.2755 13.9275 29.2657L12.789 27.8868C12.4909 27.5981 12.115 27.3516 11.6652 27.5214L9.94315 27.9922C8.52148 28.1936 6.84744 27.1006 6.57949 25.69L6.38065 23.6485C6.29994 23.2236 6.01974 22.8635 5.62771 22.6808L4.41973 22.2657C2.6032 21.4192 1.99477 19.3698 3.03778 17.6585L3.71863 16.717C3.99211 16.2683 3.97911 15.7014 3.68535 15.2657L3.17753 14.5469C1.74006 12.5001 2.73392 10.2122 4.86403 9.52633L5.33383 9.37506C5.85236 9.2081 6.35324 8.77748 6.39633 8.23444L6.50095 6.91619C6.67075 4.77644 8.62327 3.54863 10.6769 4.17295L11.3416 4.37501C11.9822 4.62501 12.4841 4.4121 12.8338 4.03126L13.5525 3.1143Z" fill="url(#paint15_radial_18_14752)"/>
<path d="M13.5525 3.1143C15.0838 1.39068 17.1657 1.665 18.4978 3.1143L19.3103 4.05491C19.5916 4.36096 19.9986 4.51967 20.4129 4.48479L21.8572 4.05491C23.826 3.63287 25.615 5.10162 25.615 7.38287V8.24224C25.6568 8.71136 26.0666 9.02938 26.4898 9.23606L27.7947 9.78131C29.6824 10.7032 30.1541 12.8907 28.7791 14.7266L28.3885 15.2422C28.0381 15.7159 28.1101 16.3376 28.4588 16.8126L28.8494 17.3594C30.2713 19.1094 29.4695 21.5104 27.4611 22.3492L26.3377 22.8184C25.9146 22.9951 25.7489 23.2984 25.6697 23.7501L25.5916 25.2188C25.3181 27.2344 23.528 28.1449 22.0916 27.9415L20.3806 27.4844C19.9697 27.4262 19.4588 27.5626 19.1853 27.9922L18.5681 28.836C17.0369 30.5626 14.9702 30.2755 13.9275 29.2657L12.789 27.8868C12.4909 27.5981 12.115 27.3516 11.6652 27.5214L9.94315 27.9922C8.52148 28.1936 6.84744 27.1006 6.57949 25.69L6.38065 23.6485C6.29994 23.2236 6.01974 22.8635 5.62771 22.6808L4.41973 22.2657C2.6032 21.4192 1.99477 19.3698 3.03778 17.6585L3.71863 16.717C3.99211 16.2683 3.97911 15.7014 3.68535 15.2657L3.17753 14.5469C1.74006 12.5001 2.73392 10.2122 4.86403 9.52633L5.33383 9.37506C5.85236 9.2081 6.35324 8.77748 6.39633 8.23444L6.50095 6.91619C6.67075 4.77644 8.62327 3.54863 10.6769 4.17295L11.3416 4.37501C11.9822 4.62501 12.4841 4.4121 12.8338 4.03126L13.5525 3.1143Z" fill="url(#paint16_radial_18_14752)"/>
<path d="M16.0364 26.7174C21.9696 26.7174 26.7794 21.9076 26.7794 15.9744C26.7794 10.0412 21.9696 5.23145 16.0364 5.23145C10.1032 5.23145 5.29346 10.0412 5.29346 15.9744C5.29346 21.9076 10.1032 26.7174 16.0364 26.7174Z" fill="url(#paint17_radial_18_14752)"/>
<path d="M16.0364 26.7174C21.9696 26.7174 26.7794 21.9076 26.7794 15.9744C26.7794 10.0412 21.9696 5.23145 16.0364 5.23145C10.1032 5.23145 5.29346 10.0412 5.29346 15.9744C5.29346 21.9076 10.1032 26.7174 16.0364 26.7174Z" fill="url(#paint18_radial_18_14752)" fill-opacity="0.5"/>
<path d="M16.0364 26.7174C21.9696 26.7174 26.7794 21.9076 26.7794 15.9744C26.7794 10.0412 21.9696 5.23145 16.0364 5.23145C10.1032 5.23145 5.29346 10.0412 5.29346 15.9744C5.29346 21.9076 10.1032 26.7174 16.0364 26.7174Z" fill="url(#paint19_radial_18_14752)" fill-opacity="0.5"/>
<path d="M16.0364 26.7174C21.9696 26.7174 26.7794 21.9076 26.7794 15.9744C26.7794 10.0412 21.9696 5.23145 16.0364 5.23145C10.1032 5.23145 5.29346 10.0412 5.29346 15.9744C5.29346 21.9076 10.1032 26.7174 16.0364 26.7174Z" fill="url(#paint20_radial_18_14752)" fill-opacity="0.5"/>
<path d="M16.0364 26.7174C21.9696 26.7174 26.7794 21.9076 26.7794 15.9744C26.7794 10.0412 21.9696 5.23145 16.0364 5.23145C10.1032 5.23145 5.29346 10.0412 5.29346 15.9744C5.29346 21.9076 10.1032 26.7174 16.0364 26.7174Z" fill="url(#paint21_radial_18_14752)" fill-opacity="0.5"/>
<path d="M16.0364 26.7174C21.9696 26.7174 26.7794 21.9076 26.7794 15.9744C26.7794 10.0412 21.9696 5.23145 16.0364 5.23145C10.1032 5.23145 5.29346 10.0412 5.29346 15.9744C5.29346 21.9076 10.1032 26.7174 16.0364 26.7174Z" fill="url(#paint22_radial_18_14752)" fill-opacity="0.5"/>
<path d="M16.0364 26.7174C21.9696 26.7174 26.7794 21.9076 26.7794 15.9744C26.7794 10.0412 21.9696 5.23145 16.0364 5.23145C10.1032 5.23145 5.29346 10.0412 5.29346 15.9744C5.29346 21.9076 10.1032 26.7174 16.0364 26.7174Z" fill="url(#paint23_radial_18_14752)" fill-opacity="0.5"/>
<path d="M16.0364 26.7174C21.9696 26.7174 26.7794 21.9076 26.7794 15.9744C26.7794 10.0412 21.9696 5.23145 16.0364 5.23145C10.1032 5.23145 5.29346 10.0412 5.29346 15.9744C5.29346 21.9076 10.1032 26.7174 16.0364 26.7174Z" fill="url(#paint24_radial_18_14752)" fill-opacity="0.5"/>
<path d="M16.0364 26.7174C21.9696 26.7174 26.7794 21.9076 26.7794 15.9744C26.7794 10.0412 21.9696 5.23145 16.0364 5.23145C10.1032 5.23145 5.29346 10.0412 5.29346 15.9744C5.29346 21.9076 10.1032 26.7174 16.0364 26.7174Z" fill="url(#paint25_radial_18_14752)" fill-opacity="0.5"/>
<path d="M16.0364 26.7174C21.9696 26.7174 26.7794 21.9076 26.7794 15.9744C26.7794 10.0412 21.9696 5.23145 16.0364 5.23145C10.1032 5.23145 5.29346 10.0412 5.29346 15.9744C5.29346 21.9076 10.1032 26.7174 16.0364 26.7174Z" fill="url(#paint26_radial_18_14752)" fill-opacity="0.5"/>
<path d="M16.0364 26.7174C21.9696 26.7174 26.7794 21.9076 26.7794 15.9744C26.7794 10.0412 21.9696 5.23145 16.0364 5.23145C10.1032 5.23145 5.29346 10.0412 5.29346 15.9744C5.29346 21.9076 10.1032 26.7174 16.0364 26.7174Z" fill="url(#paint27_radial_18_14752)" fill-opacity="0.5"/>
<path d="M16.0364 26.7174C21.9696 26.7174 26.7794 21.9076 26.7794 15.9744C26.7794 10.0412 21.9696 5.23145 16.0364 5.23145C10.1032 5.23145 5.29346 10.0412 5.29346 15.9744C5.29346 21.9076 10.1032 26.7174 16.0364 26.7174Z" fill="url(#paint28_radial_18_14752)" fill-opacity="0.5"/>
<path d="M16.0364 26.7174C21.9696 26.7174 26.7794 21.9076 26.7794 15.9744C26.7794 10.0412 21.9696 5.23145 16.0364 5.23145C10.1032 5.23145 5.29346 10.0412 5.29346 15.9744C5.29346 21.9076 10.1032 26.7174 16.0364 26.7174Z" fill="url(#paint29_radial_18_14752)" fill-opacity="0.5"/>
<path d="M16.0364 26.7174C21.9696 26.7174 26.7794 21.9076 26.7794 15.9744C26.7794 10.0412 21.9696 5.23145 16.0364 5.23145C10.1032 5.23145 5.29346 10.0412 5.29346 15.9744C5.29346 21.9076 10.1032 26.7174 16.0364 26.7174Z" fill="url(#paint30_radial_18_14752)" fill-opacity="0.5"/>
<path d="M16.0364 26.7174C21.9696 26.7174 26.7794 21.9076 26.7794 15.9744C26.7794 10.0412 21.9696 5.23145 16.0364 5.23145C10.1032 5.23145 5.29346 10.0412 5.29346 15.9744C5.29346 21.9076 10.1032 26.7174 16.0364 26.7174Z" fill="url(#paint31_radial_18_14752)" fill-opacity="0.5"/>
<path fill-rule="evenodd" clip-rule="evenodd" d="M11.3259 17.7194C11.6188 17.4265 12.0936 17.4265 12.3865 17.7194C14.5436 19.8765 18.0388 19.8765 20.1959 17.7194C20.4888 17.4265 20.9636 17.4265 21.2565 17.7194C21.5494 18.0123 21.5494 18.4872 21.2565 18.7801C18.5136 21.523 14.0688 21.523 11.3259 18.7801C11.033 18.4872 11.033 18.0123 11.3259 17.7194Z" fill="url(#paint32_radial_18_14752)"/>
<path fill-rule="evenodd" clip-rule="evenodd" d="M11.3259 17.7194C11.6188 17.4265 12.0936 17.4265 12.3865 17.7194C14.5436 19.8765 18.0388 19.8765 20.1959 17.7194C20.4888 17.4265 20.9636 17.4265 21.2565 17.7194C21.5494 18.0123 21.5494 18.4872 21.2565 18.7801C18.5136 21.523 14.0688 21.523 11.3259 18.7801C11.033 18.4872 11.033 18.0123 11.3259 17.7194Z" fill="url(#paint33_radial_18_14752)"/>
<path opacity="0.44" d="M9.42631 19.5398C11.0611 19.5398 12.3863 18.2145 12.3863 16.5798C12.3863 14.945 11.0611 13.6198 9.42631 13.6198C7.79155 13.6198 6.46631 14.945 6.46631 16.5798C6.46631 18.2145 7.79155 19.5398 9.42631 19.5398Z" fill="url(#paint34_radial_18_14752)"/>
<path opacity="0.44" d="M22.6463 19.5398C24.281 19.5398 25.6063 18.2145 25.6063 16.5798C25.6063 14.945 24.281 13.6198 22.6463 13.6198C21.0115 13.6198 19.6863 14.945 19.6863 16.5798C19.6863 18.2145 21.0115 19.5398 22.6463 19.5398Z" fill="url(#paint35_radial_18_14752)"/>
<path fill-rule="evenodd" clip-rule="evenodd" d="M11.0862 9.17969C9.72125 9.17969 8.6062 10.2869 8.6062 11.6597C8.6062 11.9358 8.38234 12.1597 8.1062 12.1597C7.83006 12.1597 7.6062 11.9358 7.6062 11.6597C7.6062 9.73245 9.17115 8.17969 11.0862 8.17969C11.3623 8.17969 11.5862 8.40355 11.5862 8.67969C11.5862 8.95583 11.3623 9.17969 11.0862 9.17969Z" fill="#43304A"/>
<path fill-rule="evenodd" clip-rule="evenodd" d="M11.0862 9.17969C9.72125 9.17969 8.6062 10.2869 8.6062 11.6597C8.6062 11.9358 8.38234 12.1597 8.1062 12.1597C7.83006 12.1597 7.6062 11.9358 7.6062 11.6597C7.6062 9.73245 9.17115 8.17969 11.0862 8.17969C11.3623 8.17969 11.5862 8.40355 11.5862 8.67969C11.5862 8.95583 11.3623 9.17969 11.0862 9.17969Z" fill="url(#paint36_radial_18_14752)"/>
<path fill-rule="evenodd" clip-rule="evenodd" d="M11.0862 9.17969C9.72125 9.17969 8.6062 10.2869 8.6062 11.6597C8.6062 11.9358 8.38234 12.1597 8.1062 12.1597C7.83006 12.1597 7.6062 11.9358 7.6062 11.6597C7.6062 9.73245 9.17115 8.17969 11.0862 8.17969C11.3623 8.17969 11.5862 8.40355 11.5862 8.67969C11.5862 8.95583 11.3623 9.17969 11.0862 9.17969Z" fill="url(#paint37_radial_18_14752)"/>
<path fill-rule="evenodd" clip-rule="evenodd" d="M11.0862 9.17969C9.72125 9.17969 8.6062 10.2869 8.6062 11.6597C8.6062 11.9358 8.38234 12.1597 8.1062 12.1597C7.83006 12.1597 7.6062 11.9358 7.6062 11.6597C7.6062 9.73245 9.17115 8.17969 11.0862 8.17969C11.3623 8.17969 11.5862 8.40355 11.5862 8.67969C11.5862 8.95583 11.3623 9.17969 11.0862 9.17969Z" fill="url(#paint38_radial_18_14752)"/>
<path fill-rule="evenodd" clip-rule="evenodd" d="M20.9663 8.67969C20.9663 8.40355 21.1902 8.17969 21.4663 8.17969C23.3814 8.17969 24.9463 9.73245 24.9463 11.6597C24.9463 11.9358 24.7225 12.1597 24.4463 12.1597C24.1702 12.1597 23.9463 11.9358 23.9463 11.6597C23.9463 10.2869 22.8313 9.17969 21.4663 9.17969C21.1902 9.17969 20.9663 8.95583 20.9663 8.67969Z" fill="#43304A"/>
<path fill-rule="evenodd" clip-rule="evenodd" d="M20.9663 8.67969C20.9663 8.40355 21.1902 8.17969 21.4663 8.17969C23.3814 8.17969 24.9463 9.73245 24.9463 11.6597C24.9463 11.9358 24.7225 12.1597 24.4463 12.1597C24.1702 12.1597 23.9463 11.9358 23.9463 11.6597C23.9463 10.2869 22.8313 9.17969 21.4663 9.17969C21.1902 9.17969 20.9663 8.95583 20.9663 8.67969Z" fill="url(#paint39_radial_18_14752)"/>
<path fill-rule="evenodd" clip-rule="evenodd" d="M20.9663 8.67969C20.9663 8.40355 21.1902 8.17969 21.4663 8.17969C23.3814 8.17969 24.9463 9.73245 24.9463 11.6597C24.9463 11.9358 24.7225 12.1597 24.4463 12.1597C24.1702 12.1597 23.9463 11.9358 23.9463 11.6597C23.9463 10.2869 22.8313 9.17969 21.4663 9.17969C21.1902 9.17969 20.9663 8.95583 20.9663 8.67969Z" fill="url(#paint40_radial_18_14752)"/>
<path fill-rule="evenodd" clip-rule="evenodd" d="M12.0063 12.6598C11.4193 12.6598 10.9235 13.0167 10.7245 13.5238C10.5732 13.9093 10.1379 14.0993 9.75236 13.948C9.36677 13.7967 9.17685 13.3614 9.32815 12.9758C9.74919 11.9029 10.7934 11.1598 12.0063 11.1598C13.2786 11.1598 14.36 11.9857 14.7387 13.1351C14.8683 13.5286 14.6544 13.9525 14.261 14.0821C13.8676 14.2117 13.4436 13.9979 13.314 13.6044C13.1326 13.0538 12.614 12.6598 12.0063 12.6598Z" fill="#5D5561"/>
<path fill-rule="evenodd" clip-rule="evenodd" d="M12.0063 12.6598C11.4193 12.6598 10.9235 13.0167 10.7245 13.5238C10.5732 13.9093 10.1379 14.0993 9.75236 13.948C9.36677 13.7967 9.17685 13.3614 9.32815 12.9758C9.74919 11.9029 10.7934 11.1598 12.0063 11.1598C13.2786 11.1598 14.36 11.9857 14.7387 13.1351C14.8683 13.5286 14.6544 13.9525 14.261 14.0821C13.8676 14.2117 13.4436 13.9979 13.314 13.6044C13.1326 13.0538 12.614 12.6598 12.0063 12.6598Z" fill="url(#paint41_radial_18_14752)"/>
<path fill-rule="evenodd" clip-rule="evenodd" d="M12.0063 12.6598C11.4193 12.6598 10.9235 13.0167 10.7245 13.5238C10.5732 13.9093 10.1379 14.0993 9.75236 13.948C9.36677 13.7967 9.17685 13.3614 9.32815 12.9758C9.74919 11.9029 10.7934 11.1598 12.0063 11.1598C13.2786 11.1598 14.36 11.9857 14.7387 13.1351C14.8683 13.5286 14.6544 13.9525 14.261 14.0821C13.8676 14.2117 13.4436 13.9979 13.314 13.6044C13.1326 13.0538 12.614 12.6598 12.0063 12.6598Z" fill="url(#paint42_radial_18_14752)"/>
<path fill-rule="evenodd" clip-rule="evenodd" d="M12.0063 12.6598C11.4193 12.6598 10.9235 13.0167 10.7245 13.5238C10.5732 13.9093 10.1379 14.0993 9.75236 13.948C9.36677 13.7967 9.17685 13.3614 9.32815 12.9758C9.74919 11.9029 10.7934 11.1598 12.0063 11.1598C13.2786 11.1598 14.36 11.9857 14.7387 13.1351C14.8683 13.5286 14.6544 13.9525 14.261 14.0821C13.8676 14.2117 13.4436 13.9979 13.314 13.6044C13.1326 13.0538 12.614 12.6598 12.0063 12.6598Z" fill="url(#paint43_radial_18_14752)"/>
<path fill-rule="evenodd" clip-rule="evenodd" d="M12.0063 12.6598C11.4193 12.6598 10.9235 13.0167 10.7245 13.5238C10.5732 13.9093 10.1379 14.0993 9.75236 13.948C9.36677 13.7967 9.17685 13.3614 9.32815 12.9758C9.74919 11.9029 10.7934 11.1598 12.0063 11.1598C13.2786 11.1598 14.36 11.9857 14.7387 13.1351C14.8683 13.5286 14.6544 13.9525 14.261 14.0821C13.8676 14.2117 13.4436 13.9979 13.314 13.6044C13.1326 13.0538 12.614 12.6598 12.0063 12.6598Z" fill="url(#paint44_radial_18_14752)"/>
<path fill-rule="evenodd" clip-rule="evenodd" d="M20.6264 12.6598C20.0394 12.6598 19.5436 13.0167 19.3446 13.5238C19.1933 13.9093 18.7581 14.0993 18.3725 13.948C17.9869 13.7967 17.797 13.3614 17.9483 12.9758C18.3693 11.9029 19.4135 11.1598 20.6264 11.1598C21.8987 11.1598 22.9802 11.9857 23.3588 13.1351C23.4884 13.5286 23.2745 13.9525 22.8811 14.0821C22.4877 14.2117 22.0637 13.9979 21.9341 13.6044C21.7527 13.0538 21.2341 12.6598 20.6264 12.6598Z" fill="#5D5561"/>
<path fill-rule="evenodd" clip-rule="evenodd" d="M20.6264 12.6598C20.0394 12.6598 19.5436 13.0167 19.3446 13.5238C19.1933 13.9093 18.7581 14.0993 18.3725 13.948C17.9869 13.7967 17.797 13.3614 17.9483 12.9758C18.3693 11.9029 19.4135 11.1598 20.6264 11.1598C21.8987 11.1598 22.9802 11.9857 23.3588 13.1351C23.4884 13.5286 23.2745 13.9525 22.8811 14.0821C22.4877 14.2117 22.0637 13.9979 21.9341 13.6044C21.7527 13.0538 21.2341 12.6598 20.6264 12.6598Z" fill="url(#paint45_radial_18_14752)"/>
<path fill-rule="evenodd" clip-rule="evenodd" d="M20.6264 12.6598C20.0394 12.6598 19.5436 13.0167 19.3446 13.5238C19.1933 13.9093 18.7581 14.0993 18.3725 13.948C17.9869 13.7967 17.797 13.3614 17.9483 12.9758C18.3693 11.9029 19.4135 11.1598 20.6264 11.1598C21.8987 11.1598 22.9802 11.9857 23.3588 13.1351C23.4884 13.5286 23.2745 13.9525 22.8811 14.0821C22.4877 14.2117 22.0637 13.9979 21.9341 13.6044C21.7527 13.0538 21.2341 12.6598 20.6264 12.6598Z" fill="url(#paint46_radial_18_14752)"/>
<path fill-rule="evenodd" clip-rule="evenodd" d="M20.6264 12.6598C20.0394 12.6598 19.5436 13.0167 19.3446 13.5238C19.1933 13.9093 18.7581 14.0993 18.3725 13.948C17.9869 13.7967 17.797 13.3614 17.9483 12.9758C18.3693 11.9029 19.4135 11.1598 20.6264 11.1598C21.8987 11.1598 22.9802 11.9857 23.3588 13.1351C23.4884 13.5286 23.2745 13.9525 22.8811 14.0821C22.4877 14.2117 22.0637 13.9979 21.9341 13.6044C21.7527 13.0538 21.2341 12.6598 20.6264 12.6598Z" fill="url(#paint47_radial_18_14752)"/>
<defs>
<linearGradient id="paint0_linear_18_14752" x1="24.38" y1="6.65025" x2="9.03007" y2="26.2347" gradientUnits="userSpaceOnUse">
<stop stop-color="#FC8B23"/>
<stop offset="0.75886" stop-color="#E67639"/>
</linearGradient>
<radialGradient id="paint1_radial_18_14752" cx="0" cy="0" r="1" gradientUnits="userSpaceOnUse" gradientTransform="translate(18.6207 3.22067) rotate(138.155) scale(3.77864 3.33393)">
<stop offset="0.300161" stop-color="#FFA13A"/>
<stop offset="1" stop-color="#FFA13A" stop-opacity="0"/>
</radialGradient>
<radialGradient id="paint2_radial_18_14752" cx="0" cy="0" r="1" gradientUnits="userSpaceOnUse" gradientTransform="translate(8.78958 2.0278) rotate(67.8105) scale(6.00715 5.30017)">
<stop offset="0.300161" stop-color="#FF942A"/>
<stop offset="1" stop-color="#FF942A" stop-opacity="0"/>
</radialGradient>
<radialGradient id="paint3_radial_18_14752" cx="0" cy="0" r="1" gradientUnits="userSpaceOnUse" gradientTransform="translate(24.9227 7.63208) rotate(-164.745) scale(2.39513 3.31637)">
<stop offset="0.300161" stop-color="#FFA13D"/>
<stop offset="1" stop-color="#FFA13D" stop-opacity="0"/>
</radialGradient>
<radialGradient id="paint4_radial_18_14752" cx="0" cy="0" r="1" gradientUnits="userSpaceOnUse" gradientTransform="translate(29.7543 11.1192) rotate(154.195) scale(4.24668 3.13649)">
<stop offset="0.300161" stop-color="#FFA13D"/>
<stop offset="1" stop-color="#FFA13D" stop-opacity="0"/>
</radialGradient>
<radialGradient id="paint5_radial_18_14752" cx="0" cy="0" r="1" gradientUnits="userSpaceOnUse" gradientTransform="translate(30.6786 18.3035) rotate(-173.379) scale(4.73709 2.66952)">
<stop offset="0.300161" stop-color="#FFA13D"/>
<stop offset="1" stop-color="#FFA13D" stop-opacity="0"/>
</radialGradient>
<radialGradient id="paint6_radial_18_14752" cx="0" cy="0" r="1" gradientUnits="userSpaceOnUse" gradientTransform="translate(17.8915 28.8623) rotate(-105.961) scale(2.88176 3.4347)">
<stop offset="0.300161" stop-color="#FFA13D"/>
<stop offset="0.837828" stop-color="#FFA13D" stop-opacity="0.143262"/>
<stop offset="1" stop-color="#FFA13D" stop-opacity="0"/>
</radialGradient>
<radialGradient id="paint7_radial_18_14752" cx="0" cy="0" r="1" gradientUnits="userSpaceOnUse" gradientTransform="translate(24.8709 25.519) rotate(135) scale(5.34783 3.8224)">
<stop offset="0.349216" stop-color="#FFA13D"/>
<stop offset="1" stop-color="#FFA13D" stop-opacity="0"/>
</radialGradient>
<radialGradient id="paint8_radial_18_14752" cx="0" cy="0" r="1" gradientUnits="userSpaceOnUse" gradientTransform="translate(10.3844 4.57951) rotate(75.2564) scale(3.40414 3.96855)">
<stop offset="0.349216" stop-color="#FFA13D"/>
<stop offset="1" stop-color="#FFA13D" stop-opacity="0"/>
</radialGradient>
<radialGradient id="paint9_radial_18_14752" cx="0" cy="0" r="1" gradientUnits="userSpaceOnUse" gradientTransform="translate(26.4352 23.8072) rotate(-43.9639) scale(4.29693 4.13959)">
<stop stop-color="#E0762A"/>
<stop offset="0.626569" stop-color="#E0762A" stop-opacity="0.292889"/>
<stop offset="1" stop-color="#E0762A" stop-opacity="0"/>
</radialGradient>
<radialGradient id="paint10_radial_18_14752" cx="0" cy="0" r="1" gradientUnits="userSpaceOnUse" gradientTransform="translate(20.1956 5.18446) rotate(1.69135) scale(2.59424 2.49925)">
<stop stop-color="#E0762A"/>
<stop offset="0.626569" stop-color="#E0762A" stop-opacity="0.292889"/>
<stop offset="1" stop-color="#E0762A" stop-opacity="0"/>
</radialGradient>
<radialGradient id="paint11_radial_18_14752" cx="0" cy="0" r="1" gradientUnits="userSpaceOnUse" gradientTransform="translate(12.7585 4.74713) rotate(-10.1755) scale(2.90906 2.80254)">
<stop stop-color="#E0762A"/>
<stop offset="0.626569" stop-color="#E0762A" stop-opacity="0.292889"/>
<stop offset="1" stop-color="#E0762A" stop-opacity="0"/>
</radialGradient>
<radialGradient id="paint12_radial_18_14752" cx="0" cy="0" r="1" gradientUnits="userSpaceOnUse" gradientTransform="translate(6.07742 10.0332) rotate(-39.6442) scale(3.33709 3.2149)">
<stop stop-color="#E0762A"/>
<stop offset="0.626569" stop-color="#E0762A" stop-opacity="0.292889"/>
<stop offset="1" stop-color="#E0762A" stop-opacity="0"/>
</radialGradient>
<radialGradient id="paint13_radial_18_14752" cx="0" cy="0" r="1" gradientUnits="userSpaceOnUse" gradientTransform="translate(6.52086 22.7989) rotate(-127.747) scale(3.29424 3.17361)">
<stop stop-color="#E0762A"/>
<stop offset="1" stop-color="#E0762A" stop-opacity="0"/>
</radialGradient>
<radialGradient id="paint14_radial_18_14752" cx="0" cy="0" r="1" gradientUnits="userSpaceOnUse" gradientTransform="translate(2.02542 11.6654) rotate(25.2777) scale(3.34528 4.04325)">
<stop stop-color="#F0851D"/>
<stop offset="1" stop-color="#F0851D" stop-opacity="0"/>
</radialGradient>
<radialGradient id="paint15_radial_18_14752" cx="0" cy="0" r="1" gradientUnits="userSpaceOnUse" gradientTransform="translate(21.994 28.5782) rotate(-142.487) scale(3.90025 3.67954)">
<stop offset="0.336586" stop-color="#E3745B"/>
<stop offset="0.689689" stop-color="#E3745B" stop-opacity="0.317051"/>
<stop offset="1" stop-color="#E3745B" stop-opacity="0"/>
</radialGradient>
<radialGradient id="paint16_radial_18_14752" cx="0" cy="0" r="1" gradientUnits="userSpaceOnUse" gradientTransform="translate(16.0363 16.1189) rotate(90) scale(11.5105 11.0663)">
<stop offset="0.918092" stop-color="#EB7922"/>
<stop offset="1" stop-color="#EB7922" stop-opacity="0"/>
</radialGradient>
<radialGradient id="paint17_radial_18_14752" cx="0" cy="0" r="1" gradientUnits="userSpaceOnUse" gradientTransform="translate(22.1329 9.75055) rotate(130.262) scale(17.4923 17.8249)">
<stop offset="0.17178" stop-color="#FFCE38"/>
<stop offset="1" stop-color="#DCA21C"/>
</radialGradient>
<radialGradient id="paint18_radial_18_14752" cx="0" cy="0" r="1" gradientUnits="userSpaceOnUse" gradientTransform="translate(18.5 13) rotate(41.9292) scale(1.46592 2.47374)">
<stop offset="0.1575" stop-color="#C06E3F"/>
<stop offset="0.582129" stop-color="#C06E3F" stop-opacity="0"/>
</radialGradient>
<radialGradient id="paint19_radial_18_14752" cx="0" cy="0" r="1" gradientUnits="userSpaceOnUse" gradientTransform="translate(19.5 12.5) rotate(50.1944) scale(3.90512 4.37717)">
<stop offset="0.104167" stop-color="#C06E3F"/>
<stop offset="0.375" stop-color="#C06E3F" stop-opacity="0"/>
</radialGradient>
<radialGradient id="paint20_radial_18_14752" cx="0" cy="0" r="1" gradientUnits="userSpaceOnUse" gradientTransform="translate(13.8352 12.8284) rotate(135) scale(2.17048 3.06022)">
<stop offset="0.132812" stop-color="#C06E3F"/>
<stop offset="0.569585" stop-color="#C06E3F" stop-opacity="0"/>
</radialGradient>
<radialGradient id="paint21_radial_18_14752" cx="0" cy="0" r="1" gradientUnits="userSpaceOnUse" gradientTransform="translate(10.5 13) rotate(24.155) scale(2.39377 4.03949)">
<stop offset="0.145" stop-color="#C06E3F"/>
<stop offset="0.331781" stop-color="#C06E3F" stop-opacity="0"/>
</radialGradient>
<radialGradient id="paint22_radial_18_14752" cx="0" cy="0" r="1" gradientUnits="userSpaceOnUse" gradientTransform="translate(12.6842 12.4447) rotate(90) scale(1.53476 4.54034)">
<stop stop-color="#C06E3F"/>
<stop offset="0.359375" stop-color="#C06E3F" stop-opacity="0"/>
</radialGradient>
<radialGradient id="paint23_radial_18_14752" cx="0" cy="0" r="1" gradientUnits="userSpaceOnUse" gradientTransform="translate(8.5 11) rotate(15.9454) scale(3.64006 6.33218)">
<stop stop-color="#C06E3F"/>
<stop offset="0.21816" stop-color="#C06E3F" stop-opacity="0"/>
</radialGradient>
<radialGradient id="paint24_radial_18_14752" cx="0" cy="0" r="1" gradientUnits="userSpaceOnUse" gradientTransform="translate(9.5 9.49996) rotate(50.1944) scale(3.90512 6.10284)">
<stop stop-color="#C06E3F"/>
<stop offset="0.213184" stop-color="#C06E3F" stop-opacity="0"/>
</radialGradient>
<radialGradient id="paint25_radial_18_14752" cx="0" cy="0" r="1" gradientUnits="userSpaceOnUse" gradientTransform="translate(11 8.99996) rotate(69.3173) scale(3.68209 6.40531)">
<stop stop-color="#C06E3F"/>
<stop offset="0.218269" stop-color="#C06E3F" stop-opacity="0"/>
</radialGradient>
<radialGradient id="paint26_radial_18_14752" cx="0" cy="0" r="1" gradientUnits="userSpaceOnUse" gradientTransform="translate(24 11) rotate(168.69) scale(2.54951 4.84316)">
<stop stop-color="#C06E3F"/>
<stop offset="0.353125" stop-color="#C06E3F" stop-opacity="0"/>
</radialGradient>
<radialGradient id="paint27_radial_18_14752" cx="0" cy="0" r="1" gradientUnits="userSpaceOnUse" gradientTransform="translate(22 8.99996) rotate(-75.9638) scale(2.06155 4.51609)">
<stop stop-color="#C06E3F"/>
<stop offset="0.35478" stop-color="#C06E3F" stop-opacity="0"/>
</radialGradient>
<radialGradient id="paint28_radial_18_14752" cx="0" cy="0" r="1" gradientUnits="userSpaceOnUse" gradientTransform="translate(23.5 9.99996) rotate(140.194) scale(3.90512 9.66246)">
<stop stop-color="#C06E3F"/>
<stop offset="0.226147" stop-color="#C06E3F" stop-opacity="0"/>
</radialGradient>
<radialGradient id="paint29_radial_18_14752" cx="0" cy="0" r="1" gradientUnits="userSpaceOnUse" gradientTransform="translate(20 19.5) rotate(156.801) scale(3.80789 1.26966)">
<stop offset="0.157328" stop-color="#C06E3F"/>
<stop offset="0.560577" stop-color="#C06E3F" stop-opacity="0"/>
</radialGradient>
<radialGradient id="paint30_radial_18_14752" cx="0" cy="0" r="1" gradientUnits="userSpaceOnUse" gradientTransform="translate(16.5 20) rotate(90) scale(1.5 5.90625)">
<stop offset="0.0416665" stop-color="#C06E3F"/>
<stop offset="0.791667" stop-color="#C06E3F" stop-opacity="0"/>
</radialGradient>
<radialGradient id="paint31_radial_18_14752" cx="0" cy="0" r="1" gradientUnits="userSpaceOnUse" gradientTransform="translate(12 19) rotate(35.5377) scale(4.30116 1.92184)">
<stop offset="0.176966" stop-color="#C06E3F"/>
<stop offset="0.452247" stop-color="#C06E3F" stop-opacity="0"/>
</radialGradient>
<radialGradient id="paint32_radial_18_14752" cx="0" cy="0" r="1" gradientUnits="userSpaceOnUse" gradientTransform="translate(16.2912 17.4998) rotate(90) scale(3.3375 5.79119)">
<stop offset="0.58111" stop-color="#503C3E"/>
<stop offset="0.646787" stop-color="#52475C"/>
<stop offset="0.708696" stop-color="#52475C"/>
<stop offset="0.885105" stop-color="#31243B"/>
</radialGradient>
<radialGradient id="paint33_radial_18_14752" cx="0" cy="0" r="1" gradientUnits="userSpaceOnUse" gradientTransform="translate(11.2738 17.9361) rotate(49.0536) scale(1.29453 1.3035)">
<stop stop-color="#2F2A35"/>
<stop offset="1" stop-color="#2F2A35" stop-opacity="0"/>
</radialGradient>
<radialGradient id="paint34_radial_18_14752" cx="0" cy="0" r="1" gradientUnits="userSpaceOnUse" gradientTransform="translate(9.42151 16.5754) scale(3.21084)">
<stop offset="0.25" stop-color="#ED501F"/>
<stop offset="0.89541" stop-color="#F18A42" stop-opacity="0"/>
</radialGradient>
<radialGradient id="paint35_radial_18_14752" cx="0" cy="0" r="1" gradientUnits="userSpaceOnUse" gradientTransform="translate(22.6415 16.5754) scale(3.21084)">
<stop offset="0.130208" stop-color="#FB6738"/>
<stop offset="0.89541" stop-color="#F18A42" stop-opacity="0"/>
</radialGradient>
<radialGradient id="paint36_radial_18_14752" cx="0" cy="0" r="1" gradientUnits="userSpaceOnUse" gradientTransform="translate(11.5862 8.55243) rotate(127.543) scale(1.12326)">
<stop stop-color="#59525C"/>
<stop offset="1" stop-color="#59525C" stop-opacity="0"/>
</radialGradient>
<radialGradient id="paint37_radial_18_14752" cx="0" cy="0" r="1" gradientUnits="userSpaceOnUse" gradientTransform="translate(11.0474 11.5056) rotate(51.3402) scale(3.20156 3.45742)">
<stop offset="0.742378" stop-color="#52445E" stop-opacity="0"/>
<stop offset="0.875" stop-color="#52445E"/>
<stop offset="1" stop-color="#52445E" stop-opacity="0"/>
</radialGradient>
<radialGradient id="paint38_radial_18_14752" cx="0" cy="0" r="1" gradientUnits="userSpaceOnUse" gradientTransform="translate(11.4681 8.52213) rotate(158.703) scale(0.841387 0.668074)">
<stop offset="0.108978" stop-color="#48424F"/>
<stop offset="1" stop-color="#48424F" stop-opacity="0"/>
</radialGradient>
<radialGradient id="paint39_radial_18_14752" cx="0" cy="0" r="1" gradientUnits="userSpaceOnUse" gradientTransform="translate(21.5474 11.5056) rotate(128.66) scale(3.20156 3.45742)">
<stop offset="0.742378" stop-color="#52445E" stop-opacity="0"/>
<stop offset="0.875" stop-color="#52445E"/>
<stop offset="1" stop-color="#52445E" stop-opacity="0"/>
</radialGradient>
<radialGradient id="paint40_radial_18_14752" cx="0" cy="0" r="1" gradientUnits="userSpaceOnUse" gradientTransform="translate(24.9463 12.1597) rotate(-122.305) scale(1.57656 1.25181)">
<stop offset="0.108978" stop-color="#453434"/>
<stop offset="1" stop-color="#453434" stop-opacity="0"/>
</radialGradient>
<radialGradient id="paint41_radial_18_14752" cx="0" cy="0" r="1" gradientUnits="userSpaceOnUse" gradientTransform="translate(12.0263 13.5487) rotate(90) scale(2.0633 2.19076)">
<stop offset="0.188596" stop-color="#382435"/>
<stop offset="1" stop-color="#382435" stop-opacity="0"/>
</radialGradient>
<radialGradient id="paint42_radial_18_14752" cx="0" cy="0" r="1" gradientUnits="userSpaceOnUse" gradientTransform="translate(12.0263 13.5487) rotate(90) scale(2.66961 3.2171)">
<stop offset="0.718644" stop-color="#382435" stop-opacity="0"/>
<stop offset="1" stop-color="#382435"/>
</radialGradient>
<radialGradient id="paint43_radial_18_14752" cx="0" cy="0" r="1" gradientUnits="userSpaceOnUse" gradientTransform="translate(12.0263 12.1773) rotate(90) scale(2.4513 5.4674)">
<stop offset="0.429103" stop-color="#382435" stop-opacity="0"/>
<stop offset="1" stop-color="#382435"/>
</radialGradient>
<radialGradient id="paint44_radial_18_14752" cx="0" cy="0" r="1" gradientUnits="userSpaceOnUse" gradientTransform="translate(10.7318 12.5039) rotate(59.4524) scale(1.42207 2.64238)">
<stop stop-color="#362841"/>
<stop offset="1" stop-color="#362841" stop-opacity="0"/>
</radialGradient>
<radialGradient id="paint45_radial_18_14752" cx="0" cy="0" r="1" gradientUnits="userSpaceOnUse" gradientTransform="translate(20.6464 13.5487) rotate(90) scale(2.0633 2.19076)">
<stop offset="0.188596" stop-color="#382435"/>
<stop offset="1" stop-color="#382435" stop-opacity="0"/>
</radialGradient>
<radialGradient id="paint46_radial_18_14752" cx="0" cy="0" r="1" gradientUnits="userSpaceOnUse" gradientTransform="translate(20.6464 13.5487) rotate(90) scale(2.66961 3.2171)">
<stop offset="0.718644" stop-color="#382435" stop-opacity="0"/>
<stop offset="1" stop-color="#382435"/>
</radialGradient>
<radialGradient id="paint47_radial_18_14752" cx="0" cy="0" r="1" gradientUnits="userSpaceOnUse" gradientTransform="translate(20.6464 12.1773) rotate(90) scale(2.4513 5.4674)">
<stop offset="0.429103" stop-color="#382435" stop-opacity="0"/>
<stop offset="1" stop-color="#382435"/>
</radialGradient>
</defs>
</svg>