<svg xmlns="http://www.w3.org/2000/svg" width="32" height="32" viewBox="0 0 32 32" fill="none">
<path d="M25 3.23462C25.2845 3.23462 25.5195 3.47065 25.5195 3.75513V3.97876L25.5371 3.96216L25.6768 3.82153C25.8828 3.61552 26.207 3.61557 26.4131 3.82153C26.5848 4.00191 26.6064 4.27293 26.4775 4.47583L26.4131 4.55786L26.2725 4.69751L26.2559 4.71509H26.4805C26.7647 4.71535 26.9998 4.95045 27.0098 5.22485C27.0098 5.50925 26.7746 5.74426 26.4902 5.74438H26.2656L26.4229 5.90161C26.5947 6.08203 26.6163 6.35297 26.4873 6.55591L26.4229 6.63794C26.2424 6.81829 25.9645 6.84046 25.7666 6.70532L25.6875 6.63794L25.5303 6.48071V6.71509C25.5301 6.99946 25.2942 7.23462 25.0098 7.23462C24.7255 7.23449 24.4904 6.99938 24.4902 6.71509V6.49048L24.333 6.64771C24.1268 6.85387 23.7936 6.85339 23.5977 6.64771H23.5967C23.391 6.44174 23.3911 6.11839 23.5967 5.91235L23.7539 5.75513H23.5303C23.2458 5.75513 23.0098 5.5191 23.0098 5.23462C23.0099 4.95029 23.2455 4.71536 23.5195 4.71509H23.7441L23.7275 4.69751L23.5869 4.55786C23.3809 4.35176 23.3808 4.02761 23.5869 3.82153C23.7931 3.61546 24.1273 3.61581 24.3232 3.82153L24.4629 3.96216L24.4805 3.97876V3.75513C24.4805 3.47065 24.7155 3.23462 25 3.23462Z" fill="url(#paint0_radial_18_15559)"/>
<path d="M25 3.23462C25.2845 3.23462 25.5195 3.47065 25.5195 3.75513V3.97876L25.5371 3.96216L25.6768 3.82153C25.8828 3.61552 26.207 3.61557 26.4131 3.82153C26.5848 4.00191 26.6064 4.27293 26.4775 4.47583L26.4131 4.55786L26.2725 4.69751L26.2559 4.71509H26.4805C26.7647 4.71535 26.9998 4.95045 27.0098 5.22485C27.0098 5.50925 26.7746 5.74426 26.4902 5.74438H26.2656L26.4229 5.90161C26.5947 6.08203 26.6163 6.35297 26.4873 6.55591L26.4229 6.63794C26.2424 6.81829 25.9645 6.84046 25.7666 6.70532L25.6875 6.63794L25.5303 6.48071V6.71509C25.5301 6.99946 25.2942 7.23462 25.0098 7.23462C24.7255 7.23449 24.4904 6.99938 24.4902 6.71509V6.49048L24.333 6.64771C24.1268 6.85387 23.7936 6.85339 23.5977 6.64771H23.5967C23.391 6.44174 23.3911 6.11839 23.5967 5.91235L23.7539 5.75513H23.5303C23.2458 5.75513 23.0098 5.5191 23.0098 5.23462C23.0099 4.95029 23.2455 4.71536 23.5195 4.71509H23.7441L23.7275 4.69751L23.5869 4.55786C23.3809 4.35176 23.3808 4.02761 23.5869 3.82153C23.7931 3.61546 24.1273 3.61581 24.3232 3.82153L24.4629 3.96216L24.4805 3.97876V3.75513C24.4805 3.47065 24.7155 3.23462 25 3.23462Z" fill="url(#paint1_radial_18_15559)"/>
<path d="M25 3.23462C25.2845 3.23462 25.5195 3.47065 25.5195 3.75513V3.97876L25.5371 3.96216L25.6768 3.82153C25.8828 3.61552 26.207 3.61557 26.4131 3.82153C26.5848 4.00191 26.6064 4.27293 26.4775 4.47583L26.4131 4.55786L26.2725 4.69751L26.2559 4.71509H26.4805C26.7647 4.71535 26.9998 4.95045 27.0098 5.22485C27.0098 5.50925 26.7746 5.74426 26.4902 5.74438H26.2656L26.4229 5.90161C26.5947 6.08203 26.6163 6.35297 26.4873 6.55591L26.4229 6.63794C26.2424 6.81829 25.9645 6.84046 25.7666 6.70532L25.6875 6.63794L25.5303 6.48071V6.71509C25.5301 6.99946 25.2942 7.23462 25.0098 7.23462C24.7255 7.23449 24.4904 6.99938 24.4902 6.71509V6.49048L24.333 6.64771C24.1268 6.85387 23.7936 6.85339 23.5977 6.64771H23.5967C23.391 6.44174 23.3911 6.11839 23.5967 5.91235L23.7539 5.75513H23.5303C23.2458 5.75513 23.0098 5.5191 23.0098 5.23462C23.0099 4.95029 23.2455 4.71536 23.5195 4.71509H23.7441L23.7275 4.69751L23.5869 4.55786C23.3809 4.35176 23.3808 4.02761 23.5869 3.82153C23.7931 3.61546 24.1273 3.61581 24.3232 3.82153L24.4629 3.96216L24.4805 3.97876V3.75513C24.4805 3.47065 24.7155 3.23462 25 3.23462Z" fill="url(#paint2_radial_18_15559)"/>
<path d="M25 3.23462C25.2845 3.23462 25.5195 3.47065 25.5195 3.75513V3.97876L25.5371 3.96216L25.6768 3.82153C25.8828 3.61552 26.207 3.61557 26.4131 3.82153C26.5848 4.00191 26.6064 4.27293 26.4775 4.47583L26.4131 4.55786L26.2725 4.69751L26.2559 4.71509H26.4805C26.7647 4.71535 26.9998 4.95045 27.0098 5.22485C27.0098 5.50925 26.7746 5.74426 26.4902 5.74438H26.2656L26.4229 5.90161C26.5947 6.08203 26.6163 6.35297 26.4873 6.55591L26.4229 6.63794C26.2424 6.81829 25.9645 6.84046 25.7666 6.70532L25.6875 6.63794L25.5303 6.48071V6.71509C25.5301 6.99946 25.2942 7.23462 25.0098 7.23462C24.7255 7.23449 24.4904 6.99938 24.4902 6.71509V6.49048L24.333 6.64771C24.1268 6.85387 23.7936 6.85339 23.5977 6.64771H23.5967C23.391 6.44174 23.3911 6.11839 23.5967 5.91235L23.7539 5.75513H23.5303C23.2458 5.75513 23.0098 5.5191 23.0098 5.23462C23.0099 4.95029 23.2455 4.71536 23.5195 4.71509H23.7441L23.7275 4.69751L23.5869 4.55786C23.3809 4.35176 23.3808 4.02761 23.5869 3.82153C23.7931 3.61546 24.1273 3.61581 24.3232 3.82153L24.4629 3.96216L24.4805 3.97876V3.75513C24.4805 3.47065 24.7155 3.23462 25 3.23462Z" stroke="#D0CDD3" stroke-width="0.02"/>
<path d="M4 8.20947C4.30381 8.20947 4.55469 8.46133 4.55469 8.76514V8.90088L4.65137 8.79736H4.65234C4.87211 8.5776 5.21774 8.5776 5.4375 8.79736H5.43848C5.64762 9.01702 5.64766 9.36288 5.43848 9.58252H5.4375L5.33984 9.68018H5.48047C5.78407 9.68043 6.03516 9.93121 6.03516 10.2349C6.03516 10.5385 5.78407 10.7893 5.48047 10.7896H5.34668L5.44629 10.8755L5.44824 10.8774C5.65734 11.097 5.65713 11.442 5.44824 11.6616L5.44727 11.6626C5.22773 11.8819 4.87212 11.8821 4.66211 11.6616L4.56543 11.5659V11.7046C4.56543 12.0084 4.31357 12.2603 4.00977 12.2603C3.70606 12.2601 3.45508 12.0083 3.45508 11.7046V11.5679L3.3584 11.6724H3.35742C3.16542 11.8643 2.86911 11.8891 2.65723 11.7446L2.57227 11.6724C2.35263 11.4526 2.35258 11.1069 2.57227 10.8872L2.66992 10.7896H2.53027C2.22647 10.7896 1.97461 10.5387 1.97461 10.2349C1.97461 9.93106 2.22647 9.68018 2.53027 9.68018H2.66699L2.5625 9.5835V9.58252C2.34274 9.36276 2.34274 9.01713 2.5625 8.79736C2.7819 8.57796 3.13753 8.57713 3.34766 8.79736H3.34863L3.44531 8.90088V8.76514C3.44531 8.46133 3.69619 8.20947 4 8.20947Z" fill="url(#paint3_radial_18_15559)"/>
<path d="M4 8.20947C4.30381 8.20947 4.55469 8.46133 4.55469 8.76514V8.90088L4.65137 8.79736H4.65234C4.87211 8.5776 5.21774 8.5776 5.4375 8.79736H5.43848C5.64762 9.01702 5.64766 9.36288 5.43848 9.58252H5.4375L5.33984 9.68018H5.48047C5.78407 9.68043 6.03516 9.93121 6.03516 10.2349C6.03516 10.5385 5.78407 10.7893 5.48047 10.7896H5.34668L5.44629 10.8755L5.44824 10.8774C5.65734 11.097 5.65713 11.442 5.44824 11.6616L5.44727 11.6626C5.22773 11.8819 4.87212 11.8821 4.66211 11.6616L4.56543 11.5659V11.7046C4.56543 12.0084 4.31357 12.2603 4.00977 12.2603C3.70606 12.2601 3.45508 12.0083 3.45508 11.7046V11.5679L3.3584 11.6724H3.35742C3.16542 11.8643 2.86911 11.8891 2.65723 11.7446L2.57227 11.6724C2.35263 11.4526 2.35258 11.1069 2.57227 10.8872L2.66992 10.7896H2.53027C2.22647 10.7896 1.97461 10.5387 1.97461 10.2349C1.97461 9.93106 2.22647 9.68018 2.53027 9.68018H2.66699L2.5625 9.5835V9.58252C2.34274 9.36276 2.34274 9.01713 2.5625 8.79736C2.7819 8.57796 3.13753 8.57713 3.34766 8.79736H3.34863L3.44531 8.90088V8.76514C3.44531 8.46133 3.69619 8.20947 4 8.20947Z" fill="url(#paint4_radial_18_15559)"/>
<path d="M4 8.20947C4.30381 8.20947 4.55469 8.46133 4.55469 8.76514V8.90088L4.65137 8.79736H4.65234C4.87211 8.5776 5.21774 8.5776 5.4375 8.79736H5.43848C5.64762 9.01702 5.64766 9.36288 5.43848 9.58252H5.4375L5.33984 9.68018H5.48047C5.78407 9.68043 6.03516 9.93121 6.03516 10.2349C6.03516 10.5385 5.78407 10.7893 5.48047 10.7896H5.34668L5.44629 10.8755L5.44824 10.8774C5.65734 11.097 5.65713 11.442 5.44824 11.6616L5.44727 11.6626C5.22773 11.8819 4.87212 11.8821 4.66211 11.6616L4.56543 11.5659V11.7046C4.56543 12.0084 4.31357 12.2603 4.00977 12.2603C3.70606 12.2601 3.45508 12.0083 3.45508 11.7046V11.5679L3.3584 11.6724H3.35742C3.16542 11.8643 2.86911 11.8891 2.65723 11.7446L2.57227 11.6724C2.35263 11.4526 2.35258 11.1069 2.57227 10.8872L2.66992 10.7896H2.53027C2.22647 10.7896 1.97461 10.5387 1.97461 10.2349C1.97461 9.93106 2.22647 9.68018 2.53027 9.68018H2.66699L2.5625 9.5835V9.58252C2.34274 9.36276 2.34274 9.01713 2.5625 8.79736C2.7819 8.57796 3.13753 8.57713 3.34766 8.79736H3.34863L3.44531 8.90088V8.76514C3.44531 8.46133 3.69619 8.20947 4 8.20947Z" stroke="#D0CDD3" stroke-width="0.05"/>
<path d="M26.9302 9.15479C27.0745 9.15497 27.1997 9.28092 27.1997 9.42529V9.55908L27.2173 9.54248L27.2974 9.4624C27.4035 9.35637 27.577 9.35633 27.6831 9.4624C27.7889 9.56851 27.789 9.74215 27.6831 9.84814L27.603 9.92822L27.5854 9.94482H27.7202C27.8745 9.945 27.9897 10.061 27.9897 10.2153C27.9896 10.3596 27.8644 10.4847 27.7202 10.4849H27.5854L27.6831 10.5825C27.7888 10.6886 27.7891 10.8623 27.6831 10.9683C27.5771 11.0742 27.4035 11.074 27.2974 10.9683L27.1997 10.8706V11.0054C27.1995 11.1496 27.0744 11.2747 26.9302 11.2749C26.7858 11.2749 26.6599 11.1497 26.6597 11.0054V10.8706L26.6431 10.8882L26.563 10.9683C26.457 11.0742 26.2833 11.074 26.1772 10.9683C26.0712 10.8622 26.0712 10.6886 26.1772 10.5825L26.2573 10.5024L26.2739 10.4849H26.1401C25.9958 10.4849 25.8698 10.3597 25.8696 10.2153C25.8696 10.0709 25.9957 9.94482 26.1401 9.94482H26.2739L26.1772 9.84814C26.0712 9.74205 26.0712 9.5685 26.1772 9.4624C26.2833 9.35631 26.4569 9.35631 26.563 9.4624L26.6597 9.55908V9.42529C26.6597 9.28082 26.7857 9.15479 26.9302 9.15479Z" fill="url(#paint5_radial_18_15559)"/>
<path d="M26.9302 9.15479C27.0745 9.15497 27.1997 9.28092 27.1997 9.42529V9.55908L27.2173 9.54248L27.2974 9.4624C27.4035 9.35637 27.577 9.35633 27.6831 9.4624C27.7889 9.56851 27.789 9.74215 27.6831 9.84814L27.603 9.92822L27.5854 9.94482H27.7202C27.8745 9.945 27.9897 10.061 27.9897 10.2153C27.9896 10.3596 27.8644 10.4847 27.7202 10.4849H27.5854L27.6831 10.5825C27.7888 10.6886 27.7891 10.8623 27.6831 10.9683C27.5771 11.0742 27.4035 11.074 27.2974 10.9683L27.1997 10.8706V11.0054C27.1995 11.1496 27.0744 11.2747 26.9302 11.2749C26.7858 11.2749 26.6599 11.1497 26.6597 11.0054V10.8706L26.6431 10.8882L26.563 10.9683C26.457 11.0742 26.2833 11.074 26.1772 10.9683C26.0712 10.8622 26.0712 10.6886 26.1772 10.5825L26.2573 10.5024L26.2739 10.4849H26.1401C25.9958 10.4849 25.8698 10.3597 25.8696 10.2153C25.8696 10.0709 25.9957 9.94482 26.1401 9.94482H26.2739L26.1772 9.84814C26.0712 9.74205 26.0712 9.5685 26.1772 9.4624C26.2833 9.35631 26.4569 9.35631 26.563 9.4624L26.6597 9.55908V9.42529C26.6597 9.28082 26.7857 9.15479 26.9302 9.15479Z" fill="url(#paint6_radial_18_15559)"/>
<path d="M26.9302 9.15479C27.0745 9.15497 27.1997 9.28092 27.1997 9.42529V9.55908L27.2173 9.54248L27.2974 9.4624C27.4035 9.35637 27.577 9.35633 27.6831 9.4624C27.7889 9.56851 27.789 9.74215 27.6831 9.84814L27.603 9.92822L27.5854 9.94482H27.7202C27.8745 9.945 27.9897 10.061 27.9897 10.2153C27.9896 10.3596 27.8644 10.4847 27.7202 10.4849H27.5854L27.6831 10.5825C27.7888 10.6886 27.7891 10.8623 27.6831 10.9683C27.5771 11.0742 27.4035 11.074 27.2974 10.9683L27.1997 10.8706V11.0054C27.1995 11.1496 27.0744 11.2747 26.9302 11.2749C26.7858 11.2749 26.6599 11.1497 26.6597 11.0054V10.8706L26.6431 10.8882L26.563 10.9683C26.457 11.0742 26.2833 11.074 26.1772 10.9683C26.0712 10.8622 26.0712 10.6886 26.1772 10.5825L26.2573 10.5024L26.2739 10.4849H26.1401C25.9958 10.4849 25.8698 10.3597 25.8696 10.2153C25.8696 10.0709 25.9957 9.94482 26.1401 9.94482H26.2739L26.1772 9.84814C26.0712 9.74205 26.0712 9.5685 26.1772 9.4624C26.2833 9.35631 26.4569 9.35631 26.563 9.4624L26.6597 9.55908V9.42529C26.6597 9.28082 26.7857 9.15479 26.9302 9.15479Z" fill="url(#paint7_radial_18_15559)"/>
<path d="M26.9302 9.15479C27.0745 9.15497 27.1997 9.28092 27.1997 9.42529V9.55908L27.2173 9.54248L27.2974 9.4624C27.4035 9.35637 27.577 9.35633 27.6831 9.4624C27.7889 9.56851 27.789 9.74215 27.6831 9.84814L27.603 9.92822L27.5854 9.94482H27.7202C27.8745 9.945 27.9897 10.061 27.9897 10.2153C27.9896 10.3596 27.8644 10.4847 27.7202 10.4849H27.5854L27.6831 10.5825C27.7888 10.6886 27.7891 10.8623 27.6831 10.9683C27.5771 11.0742 27.4035 11.074 27.2974 10.9683L27.1997 10.8706V11.0054C27.1995 11.1496 27.0744 11.2747 26.9302 11.2749C26.7858 11.2749 26.6599 11.1497 26.6597 11.0054V10.8706L26.6431 10.8882L26.563 10.9683C26.457 11.0742 26.2833 11.074 26.1772 10.9683C26.0712 10.8622 26.0712 10.6886 26.1772 10.5825L26.2573 10.5024L26.2739 10.4849H26.1401C25.9958 10.4849 25.8698 10.3597 25.8696 10.2153C25.8696 10.0709 25.9957 9.94482 26.1401 9.94482H26.2739L26.1772 9.84814C26.0712 9.74205 26.0712 9.5685 26.1772 9.4624C26.2833 9.35631 26.4569 9.35631 26.563 9.4624L26.6597 9.55908V9.42529C26.6597 9.28082 26.7857 9.15479 26.9302 9.15479Z" stroke="#D0CDD3" stroke-width="0.02"/>
<path d="M6.01025 4.17456C6.1546 4.17474 6.27979 4.3007 6.27979 4.44507V4.57886L6.29736 4.56226L6.37744 4.48218C6.48354 4.37614 6.65711 4.3761 6.76318 4.48218C6.86895 4.58828 6.86912 4.76192 6.76318 4.86792L6.68311 4.948L6.66553 4.9646H6.78955C6.94426 4.9646 7.06982 5.09086 7.06982 5.23511C7.06964 5.37934 6.94452 5.50444 6.80029 5.50464H6.66553L6.76318 5.60229C6.86891 5.70842 6.86915 5.88207 6.76318 5.98804C6.65721 6.09401 6.48357 6.09376 6.37744 5.98804L6.27979 5.89038V6.02515C6.27958 6.16937 6.15448 6.2945 6.01025 6.29468C5.86589 6.29468 5.73995 6.16948 5.73975 6.02515V5.89038L5.72314 5.90796L5.64307 5.98804C5.53707 6.09397 5.36343 6.0938 5.25732 5.98804C5.15125 5.88196 5.15129 5.7084 5.25732 5.60229L5.3374 5.52222L5.354 5.50464H5.22021C5.07584 5.50464 4.94989 5.37945 4.94971 5.23511C4.94971 5.09063 5.07574 4.9646 5.22021 4.9646H5.354L5.25732 4.86792C5.15123 4.76183 5.15123 4.58827 5.25732 4.48218C5.36342 4.37608 5.53697 4.37608 5.64307 4.48218L5.73975 4.57886V4.44507C5.73975 4.30059 5.86578 4.17456 6.01025 4.17456Z" fill="url(#paint8_radial_18_15559)"/>
<path d="M6.01025 4.17456C6.1546 4.17474 6.27979 4.3007 6.27979 4.44507V4.57886L6.29736 4.56226L6.37744 4.48218C6.48354 4.37614 6.65711 4.3761 6.76318 4.48218C6.86895 4.58828 6.86912 4.76192 6.76318 4.86792L6.68311 4.948L6.66553 4.9646H6.78955C6.94426 4.9646 7.06982 5.09086 7.06982 5.23511C7.06964 5.37934 6.94452 5.50444 6.80029 5.50464H6.66553L6.76318 5.60229C6.86891 5.70842 6.86915 5.88207 6.76318 5.98804C6.65721 6.09401 6.48357 6.09376 6.37744 5.98804L6.27979 5.89038V6.02515C6.27958 6.16937 6.15448 6.2945 6.01025 6.29468C5.86589 6.29468 5.73995 6.16948 5.73975 6.02515V5.89038L5.72314 5.90796L5.64307 5.98804C5.53707 6.09397 5.36343 6.0938 5.25732 5.98804C5.15125 5.88196 5.15129 5.7084 5.25732 5.60229L5.3374 5.52222L5.354 5.50464H5.22021C5.07584 5.50464 4.94989 5.37945 4.94971 5.23511C4.94971 5.09063 5.07574 4.9646 5.22021 4.9646H5.354L5.25732 4.86792C5.15123 4.76183 5.15123 4.58827 5.25732 4.48218C5.36342 4.37608 5.53697 4.37608 5.64307 4.48218L5.73975 4.57886V4.44507C5.73975 4.30059 5.86578 4.17456 6.01025 4.17456Z" fill="url(#paint9_radial_18_15559)"/>
<path d="M6.01025 4.17456C6.1546 4.17474 6.27979 4.3007 6.27979 4.44507V4.57886L6.29736 4.56226L6.37744 4.48218C6.48354 4.37614 6.65711 4.3761 6.76318 4.48218C6.86895 4.58828 6.86912 4.76192 6.76318 4.86792L6.68311 4.948L6.66553 4.9646H6.78955C6.94426 4.9646 7.06982 5.09086 7.06982 5.23511C7.06964 5.37934 6.94452 5.50444 6.80029 5.50464H6.66553L6.76318 5.60229C6.86891 5.70842 6.86915 5.88207 6.76318 5.98804C6.65721 6.09401 6.48357 6.09376 6.37744 5.98804L6.27979 5.89038V6.02515C6.27958 6.16937 6.15448 6.2945 6.01025 6.29468C5.86589 6.29468 5.73995 6.16948 5.73975 6.02515V5.89038L5.72314 5.90796L5.64307 5.98804C5.53707 6.09397 5.36343 6.0938 5.25732 5.98804C5.15125 5.88196 5.15129 5.7084 5.25732 5.60229L5.3374 5.52222L5.354 5.50464H5.22021C5.07584 5.50464 4.94989 5.37945 4.94971 5.23511C4.94971 5.09063 5.07574 4.9646 5.22021 4.9646H5.354L5.25732 4.86792C5.15123 4.76183 5.15123 4.58827 5.25732 4.48218C5.36342 4.37608 5.53697 4.37608 5.64307 4.48218L5.73975 4.57886V4.44507C5.73975 4.30059 5.86578 4.17456 6.01025 4.17456Z" fill="url(#paint10_radial_18_15559)"/>
<path d="M6.01025 4.17456C6.1546 4.17474 6.27979 4.3007 6.27979 4.44507V4.57886L6.29736 4.56226L6.37744 4.48218C6.48354 4.37614 6.65711 4.3761 6.76318 4.48218C6.86895 4.58828 6.86912 4.76192 6.76318 4.86792L6.68311 4.948L6.66553 4.9646H6.78955C6.94426 4.9646 7.06982 5.09086 7.06982 5.23511C7.06964 5.37934 6.94452 5.50444 6.80029 5.50464H6.66553L6.76318 5.60229C6.86891 5.70842 6.86915 5.88207 6.76318 5.98804C6.65721 6.09401 6.48357 6.09376 6.37744 5.98804L6.27979 5.89038V6.02515C6.27958 6.16937 6.15448 6.2945 6.01025 6.29468C5.86589 6.29468 5.73995 6.16948 5.73975 6.02515V5.89038L5.72314 5.90796L5.64307 5.98804C5.53707 6.09397 5.36343 6.0938 5.25732 5.98804C5.15125 5.88196 5.15129 5.7084 5.25732 5.60229L5.3374 5.52222L5.354 5.50464H5.22021C5.07584 5.50464 4.94989 5.37945 4.94971 5.23511C4.94971 5.09063 5.07574 4.9646 5.22021 4.9646H5.354L5.25732 4.86792C5.15123 4.76183 5.15123 4.58827 5.25732 4.48218C5.36342 4.37608 5.53697 4.37608 5.64307 4.48218L5.73975 4.57886V4.44507C5.73975 4.30059 5.86578 4.17456 6.01025 4.17456Z" stroke="#D0CDD3" stroke-width="0.02"/>
<path d="M3.87036 19.1548C4.01471 19.155 4.13989 19.2809 4.13989 19.4253V19.5591L4.15747 19.5425L4.23755 19.4624C4.34365 19.3564 4.51722 19.3563 4.62329 19.4624C4.72905 19.5685 4.72922 19.7421 4.62329 19.8481L4.54321 19.9282L4.52563 19.9448H4.6604C4.8045 19.945 4.92993 20.0705 4.92993 20.2251C4.92989 20.3694 4.8047 20.4944 4.6604 20.4946H4.52368L4.54321 20.5122L4.62329 20.5825C4.72902 20.6886 4.72926 20.8623 4.62329 20.9683C4.51732 21.0742 4.34368 21.074 4.23755 20.9683L4.13989 20.8706V21.0054C4.13969 21.1496 4.01459 21.2747 3.87036 21.2749C3.726 21.2749 3.60006 21.1497 3.59985 21.0054V20.8706L3.58325 20.8882L3.50317 20.9683C3.39718 21.0742 3.22354 21.074 3.11743 20.9683C3.01136 20.8622 3.0114 20.6886 3.11743 20.5825L3.19751 20.5024L3.21411 20.4849H3.08032C2.93595 20.4849 2.81 20.3597 2.80981 20.2153C2.80981 20.0709 2.93585 19.9448 3.08032 19.9448H3.21411L3.11743 19.8481C3.01134 19.742 3.01134 19.5685 3.11743 19.4624C3.22353 19.3563 3.39708 19.3563 3.50317 19.4624L3.59985 19.5591V19.4253C3.59985 19.2808 3.72588 19.1548 3.87036 19.1548Z" fill="url(#paint11_radial_18_15559)"/>
<path d="M3.87036 19.1548C4.01471 19.155 4.13989 19.2809 4.13989 19.4253V19.5591L4.15747 19.5425L4.23755 19.4624C4.34365 19.3564 4.51722 19.3563 4.62329 19.4624C4.72905 19.5685 4.72922 19.7421 4.62329 19.8481L4.54321 19.9282L4.52563 19.9448H4.6604C4.8045 19.945 4.92993 20.0705 4.92993 20.2251C4.92989 20.3694 4.8047 20.4944 4.6604 20.4946H4.52368L4.54321 20.5122L4.62329 20.5825C4.72902 20.6886 4.72926 20.8623 4.62329 20.9683C4.51732 21.0742 4.34368 21.074 4.23755 20.9683L4.13989 20.8706V21.0054C4.13969 21.1496 4.01459 21.2747 3.87036 21.2749C3.726 21.2749 3.60006 21.1497 3.59985 21.0054V20.8706L3.58325 20.8882L3.50317 20.9683C3.39718 21.0742 3.22354 21.074 3.11743 20.9683C3.01136 20.8622 3.0114 20.6886 3.11743 20.5825L3.19751 20.5024L3.21411 20.4849H3.08032C2.93595 20.4849 2.81 20.3597 2.80981 20.2153C2.80981 20.0709 2.93585 19.9448 3.08032 19.9448H3.21411L3.11743 19.8481C3.01134 19.742 3.01134 19.5685 3.11743 19.4624C3.22353 19.3563 3.39708 19.3563 3.50317 19.4624L3.59985 19.5591V19.4253C3.59985 19.2808 3.72588 19.1548 3.87036 19.1548Z" fill="url(#paint12_radial_18_15559)"/>
<path d="M3.87036 19.1548C4.01471 19.155 4.13989 19.2809 4.13989 19.4253V19.5591L4.15747 19.5425L4.23755 19.4624C4.34365 19.3564 4.51722 19.3563 4.62329 19.4624C4.72905 19.5685 4.72922 19.7421 4.62329 19.8481L4.54321 19.9282L4.52563 19.9448H4.6604C4.8045 19.945 4.92993 20.0705 4.92993 20.2251C4.92989 20.3694 4.8047 20.4944 4.6604 20.4946H4.52368L4.54321 20.5122L4.62329 20.5825C4.72902 20.6886 4.72926 20.8623 4.62329 20.9683C4.51732 21.0742 4.34368 21.074 4.23755 20.9683L4.13989 20.8706V21.0054C4.13969 21.1496 4.01459 21.2747 3.87036 21.2749C3.726 21.2749 3.60006 21.1497 3.59985 21.0054V20.8706L3.58325 20.8882L3.50317 20.9683C3.39718 21.0742 3.22354 21.074 3.11743 20.9683C3.01136 20.8622 3.0114 20.6886 3.11743 20.5825L3.19751 20.5024L3.21411 20.4849H3.08032C2.93595 20.4849 2.81 20.3597 2.80981 20.2153C2.80981 20.0709 2.93585 19.9448 3.08032 19.9448H3.21411L3.11743 19.8481C3.01134 19.742 3.01134 19.5685 3.11743 19.4624C3.22353 19.3563 3.39708 19.3563 3.50317 19.4624L3.59985 19.5591V19.4253C3.59985 19.2808 3.72588 19.1548 3.87036 19.1548Z" fill="url(#paint13_radial_18_15559)"/>
<path d="M3.87036 19.1548C4.01471 19.155 4.13989 19.2809 4.13989 19.4253V19.5591L4.15747 19.5425L4.23755 19.4624C4.34365 19.3564 4.51722 19.3563 4.62329 19.4624C4.72905 19.5685 4.72922 19.7421 4.62329 19.8481L4.54321 19.9282L4.52563 19.9448H4.6604C4.8045 19.945 4.92993 20.0705 4.92993 20.2251C4.92989 20.3694 4.8047 20.4944 4.6604 20.4946H4.52368L4.54321 20.5122L4.62329 20.5825C4.72902 20.6886 4.72926 20.8623 4.62329 20.9683C4.51732 21.0742 4.34368 21.074 4.23755 20.9683L4.13989 20.8706V21.0054C4.13969 21.1496 4.01459 21.2747 3.87036 21.2749C3.726 21.2749 3.60006 21.1497 3.59985 21.0054V20.8706L3.58325 20.8882L3.50317 20.9683C3.39718 21.0742 3.22354 21.074 3.11743 20.9683C3.01136 20.8622 3.0114 20.6886 3.11743 20.5825L3.19751 20.5024L3.21411 20.4849H3.08032C2.93595 20.4849 2.81 20.3597 2.80981 20.2153C2.80981 20.0709 2.93585 19.9448 3.08032 19.9448H3.21411L3.11743 19.8481C3.01134 19.742 3.01134 19.5685 3.11743 19.4624C3.22353 19.3563 3.39708 19.3563 3.50317 19.4624L3.59985 19.5591V19.4253C3.59985 19.2808 3.72588 19.1548 3.87036 19.1548Z" stroke="#D0CDD3" stroke-width="0.02"/>
<path d="M28.0005 22.1746C28.1448 22.1747 28.27 22.3007 28.27 22.4451V22.5789L28.2876 22.5623L28.3677 22.4822C28.4738 22.3761 28.6473 22.3761 28.7534 22.4822C28.8592 22.5883 28.8593 22.7619 28.7534 22.8679L28.6733 22.948L28.6558 22.9646H28.7905C28.9446 22.9648 29.0601 23.0905 29.0601 23.2351C29.0599 23.3793 28.9348 23.5044 28.7905 23.5046H28.6558L28.7534 23.6023C28.8591 23.7084 28.8594 23.8821 28.7534 23.988C28.6474 24.094 28.4738 24.0938 28.3677 23.988L28.27 23.8904V24.0251C28.2698 24.1694 28.1447 24.2945 28.0005 24.2947C27.8561 24.2947 27.7302 24.1695 27.73 24.0251V23.8904L27.7134 23.908L27.6333 23.988C27.5273 24.094 27.3537 24.0938 27.2476 23.988C27.1415 23.882 27.1415 23.7084 27.2476 23.6023L27.3276 23.5222L27.3442 23.5046H27.2104C27.0661 23.5046 26.9401 23.3795 26.9399 23.2351C26.9399 23.0906 27.066 22.9646 27.2104 22.9646H27.3442L27.2476 22.8679C27.1415 22.7618 27.1415 22.5883 27.2476 22.4822C27.3537 22.3761 27.5272 22.3761 27.6333 22.4822L27.73 22.5789V22.4451C27.73 22.3006 27.856 22.1746 28.0005 22.1746Z" fill="url(#paint14_radial_18_15559)"/>
<path d="M28.0005 22.1746C28.1448 22.1747 28.27 22.3007 28.27 22.4451V22.5789L28.2876 22.5623L28.3677 22.4822C28.4738 22.3761 28.6473 22.3761 28.7534 22.4822C28.8592 22.5883 28.8593 22.7619 28.7534 22.8679L28.6733 22.948L28.6558 22.9646H28.7905C28.9446 22.9648 29.0601 23.0905 29.0601 23.2351C29.0599 23.3793 28.9348 23.5044 28.7905 23.5046H28.6558L28.7534 23.6023C28.8591 23.7084 28.8594 23.8821 28.7534 23.988C28.6474 24.094 28.4738 24.0938 28.3677 23.988L28.27 23.8904V24.0251C28.2698 24.1694 28.1447 24.2945 28.0005 24.2947C27.8561 24.2947 27.7302 24.1695 27.73 24.0251V23.8904L27.7134 23.908L27.6333 23.988C27.5273 24.094 27.3537 24.0938 27.2476 23.988C27.1415 23.882 27.1415 23.7084 27.2476 23.6023L27.3276 23.5222L27.3442 23.5046H27.2104C27.0661 23.5046 26.9401 23.3795 26.9399 23.2351C26.9399 23.0906 27.066 22.9646 27.2104 22.9646H27.3442L27.2476 22.8679C27.1415 22.7618 27.1415 22.5883 27.2476 22.4822C27.3537 22.3761 27.5272 22.3761 27.6333 22.4822L27.73 22.5789V22.4451C27.73 22.3006 27.856 22.1746 28.0005 22.1746Z" fill="url(#paint15_radial_18_15559)"/>
<path d="M28.0005 22.1746C28.1448 22.1747 28.27 22.3007 28.27 22.4451V22.5789L28.2876 22.5623L28.3677 22.4822C28.4738 22.3761 28.6473 22.3761 28.7534 22.4822C28.8592 22.5883 28.8593 22.7619 28.7534 22.8679L28.6733 22.948L28.6558 22.9646H28.7905C28.9446 22.9648 29.0601 23.0905 29.0601 23.2351C29.0599 23.3793 28.9348 23.5044 28.7905 23.5046H28.6558L28.7534 23.6023C28.8591 23.7084 28.8594 23.8821 28.7534 23.988C28.6474 24.094 28.4738 24.0938 28.3677 23.988L28.27 23.8904V24.0251C28.2698 24.1694 28.1447 24.2945 28.0005 24.2947C27.8561 24.2947 27.7302 24.1695 27.73 24.0251V23.8904L27.7134 23.908L27.6333 23.988C27.5273 24.094 27.3537 24.0938 27.2476 23.988C27.1415 23.882 27.1415 23.7084 27.2476 23.6023L27.3276 23.5222L27.3442 23.5046H27.2104C27.0661 23.5046 26.9401 23.3795 26.9399 23.2351C26.9399 23.0906 27.066 22.9646 27.2104 22.9646H27.3442L27.2476 22.8679C27.1415 22.7618 27.1415 22.5883 27.2476 22.4822C27.3537 22.3761 27.5272 22.3761 27.6333 22.4822L27.73 22.5789V22.4451C27.73 22.3006 27.856 22.1746 28.0005 22.1746Z" fill="url(#paint16_radial_18_15559)"/>
<path d="M28.0005 22.1746C28.1448 22.1747 28.27 22.3007 28.27 22.4451V22.5789L28.2876 22.5623L28.3677 22.4822C28.4738 22.3761 28.6473 22.3761 28.7534 22.4822C28.8592 22.5883 28.8593 22.7619 28.7534 22.8679L28.6733 22.948L28.6558 22.9646H28.7905C28.9446 22.9648 29.0601 23.0905 29.0601 23.2351C29.0599 23.3793 28.9348 23.5044 28.7905 23.5046H28.6558L28.7534 23.6023C28.8591 23.7084 28.8594 23.8821 28.7534 23.988C28.6474 24.094 28.4738 24.0938 28.3677 23.988L28.27 23.8904V24.0251C28.2698 24.1694 28.1447 24.2945 28.0005 24.2947C27.8561 24.2947 27.7302 24.1695 27.73 24.0251V23.8904L27.7134 23.908L27.6333 23.988C27.5273 24.094 27.3537 24.0938 27.2476 23.988C27.1415 23.882 27.1415 23.7084 27.2476 23.6023L27.3276 23.5222L27.3442 23.5046H27.2104C27.0661 23.5046 26.9401 23.3795 26.9399 23.2351C26.9399 23.0906 27.066 22.9646 27.2104 22.9646H27.3442L27.2476 22.8679C27.1415 22.7618 27.1415 22.5883 27.2476 22.4822C27.3537 22.3761 27.5272 22.3761 27.6333 22.4822L27.73 22.5789V22.4451C27.73 22.3006 27.856 22.1746 28.0005 22.1746Z" stroke="#D0CDD3" stroke-width="0.02"/>
<path d="M6.91992 15.9948V13.5748" stroke="#433B6B" stroke-miterlimit="10" stroke-linecap="round" stroke-linejoin="round"/>
<path d="M5 14.6049L10.16 19.1149" stroke="#433B6B" stroke-miterlimit="10" stroke-linecap="round" stroke-linejoin="round"/>
<path d="M25.9399 15.9948V13.5748" stroke="#433B6B" stroke-miterlimit="10" stroke-linecap="round" stroke-linejoin="round"/>
<path d="M27.86 14.6049L22.7 19.1149" stroke="#433B6B" stroke-miterlimit="10" stroke-linecap="round" stroke-linejoin="round"/>
<path d="M24.7 17.5449H26.94" stroke="#433B6B" stroke-miterlimit="10" stroke-linecap="round" stroke-linejoin="round"/>
<path d="M5.86987 17.5349H8.10987" stroke="#433B6B" stroke-miterlimit="10" stroke-linecap="round" stroke-linejoin="round"/>
<path d="M26.6598 23.2349C26.6598 28.8649 22.0898 30.0349 16.4598 30.0349C10.8298 30.0349 6.25977 28.8649 6.25977 23.2349C6.25977 17.6049 10.8298 13.0349 16.4598 13.0349C22.0898 13.0349 26.6598 17.6049 26.6598 23.2349Z" fill="url(#paint17_radial_18_15559)"/>
<path d="M26.6598 23.2349C26.6598 28.8649 22.0898 30.0349 16.4598 30.0349C10.8298 30.0349 6.25977 28.8649 6.25977 23.2349C6.25977 17.6049 10.8298 13.0349 16.4598 13.0349C22.0898 13.0349 26.6598 17.6049 26.6598 23.2349Z" fill="url(#paint18_radial_18_15559)"/>
<path d="M26.6598 23.2349C26.6598 28.8649 22.0898 30.0349 16.4598 30.0349C10.8298 30.0349 6.25977 28.8649 6.25977 23.2349C6.25977 17.6049 10.8298 13.0349 16.4598 13.0349C22.0898 13.0349 26.6598 17.6049 26.6598 23.2349Z" fill="url(#paint19_radial_18_15559)"/>
<path d="M26.6598 23.2349C26.6598 28.8649 22.0898 30.0349 16.4598 30.0349C10.8298 30.0349 6.25977 28.8649 6.25977 23.2349C6.25977 17.6049 10.8298 13.0349 16.4598 13.0349C22.0898 13.0349 26.6598 17.6049 26.6598 23.2349Z" fill="url(#paint20_radial_18_15559)"/>
<path d="M26.6598 23.2349C26.6598 28.8649 22.0898 30.0349 16.4598 30.0349C10.8298 30.0349 6.25977 28.8649 6.25977 23.2349C6.25977 17.6049 10.8298 13.0349 16.4598 13.0349C22.0898 13.0349 26.6598 17.6049 26.6598 23.2349Z" fill="url(#paint21_linear_18_15559)"/>
<path d="M26.6598 23.2349C26.6598 28.8649 22.0898 30.0349 16.4598 30.0349C10.8298 30.0349 6.25977 28.8649 6.25977 23.2349C6.25977 17.6049 10.8298 13.0349 16.4598 13.0349C22.0898 13.0349 26.6598 17.6049 26.6598 23.2349Z" fill="url(#paint22_radial_18_15559)"/>
<path d="M17.95 25.0149C17.68 25.0149 17.46 24.7949 17.46 24.5249V23.5049C17.46 23.2349 17.68 23.0149 17.95 23.0149C18.22 23.0149 18.44 23.2349 18.44 23.5049V24.5249C18.44 24.7949 18.22 25.0149 17.95 25.0149Z" fill="url(#paint23_linear_18_15559)"/>
<path d="M19.96 25.0249C19.69 25.0249 19.47 24.8049 19.47 24.5349V23.5049C19.47 23.2349 19.69 23.0149 19.96 23.0149C20.23 23.0149 20.45 23.2349 20.45 23.5049V24.5349C20.45 24.7949 20.23 25.0249 19.96 25.0249Z" fill="url(#paint24_linear_18_15559)"/>
<path d="M21.95 25.0249C21.68 25.0249 21.46 24.8049 21.46 24.5349V23.5049C21.46 23.2349 21.68 23.0149 21.95 23.0149C22.22 23.0149 22.44 23.2349 22.44 23.5049V24.5349C22.44 24.7949 22.22 25.0249 21.95 25.0249Z" fill="url(#paint25_linear_18_15559)"/>
<path d="M21.8099 24.0349H18.0799C17.7199 24.0349 17.4299 23.7449 17.4299 23.3849V18.0349H22.4599V23.3849C22.4599 23.7449 22.1699 24.0349 21.8099 24.0349Z" fill="url(#paint26_linear_18_15559)"/>
<path d="M21.8099 24.0349H18.0799C17.7199 24.0349 17.4299 23.7449 17.4299 23.3849V18.0349H22.4599V23.3849C22.4599 23.7449 22.1699 24.0349 21.8099 24.0349Z" fill="url(#paint27_radial_18_15559)"/>
<path d="M23.5798 15.6949C23.5798 19.6249 20.3898 20.0849 16.4598 20.0849C12.5298 20.0849 9.33984 19.6249 9.33984 15.6949C9.33984 11.7649 12.5298 15.0549 16.4598 15.0549C20.3898 15.0549 23.5798 11.7649 23.5798 15.6949Z" fill="url(#paint28_linear_18_15559)"/>
<path d="M23.5798 15.6949C23.5798 19.6249 20.3898 20.0849 16.4598 20.0849C12.5298 20.0849 9.33984 19.6249 9.33984 15.6949C9.33984 11.7649 12.5298 15.0549 16.4598 15.0549C20.3898 15.0549 23.5798 11.7649 23.5798 15.6949Z" fill="url(#paint29_radial_18_15559)"/>
<path d="M23.5798 15.6949C23.5798 19.6249 20.3898 20.0849 16.4598 20.0849C12.5298 20.0849 9.33984 19.6249 9.33984 15.6949C9.33984 11.7649 12.5298 15.0549 16.4598 15.0549C20.3898 15.0549 23.5798 11.7649 23.5798 15.6949Z" fill="url(#paint30_radial_18_15559)"/>
<path d="M23.5798 15.6949C23.5798 19.6249 20.3898 20.0849 16.4598 20.0849C12.5298 20.0849 9.33984 19.6249 9.33984 15.6949C9.33984 11.7649 12.5298 15.0549 16.4598 15.0549C20.3898 15.0549 23.5798 11.7649 23.5798 15.6949Z" fill="url(#paint31_radial_18_15559)"/>
<path d="M23.5798 15.6949C23.5798 19.6249 20.3898 20.0849 16.4598 20.0849C12.5298 20.0849 9.33984 19.6249 9.33984 15.6949C9.33984 11.7649 12.5298 15.0549 16.4598 15.0549C20.3898 15.0549 23.5798 11.7649 23.5798 15.6949Z" fill="url(#paint32_radial_18_15559)"/>
<path d="M23.5798 15.6949C23.5798 19.6249 20.3898 20.0849 16.4598 20.0849C12.5298 20.0849 9.33984 19.6249 9.33984 15.6949C9.33984 11.7649 12.5298 15.0549 16.4598 15.0549C20.3898 15.0549 23.5798 11.7649 23.5798 15.6949Z" fill="url(#paint33_radial_18_15559)"/>
<path d="M23.5798 15.6949C23.5798 19.6249 20.3898 20.0849 16.4598 20.0849C12.5298 20.0849 9.33984 19.6249 9.33984 15.6949C9.33984 11.7649 12.5298 15.0549 16.4598 15.0549C20.3898 15.0549 23.5798 11.7649 23.5798 15.6949Z" fill="url(#paint34_radial_18_15559)"/>
<path d="M23.5399 12.1548C23.5399 16.0648 20.3399 16.5 16.4199 16.5C12.4999 16.5 9.36987 16.0748 9.36987 12.1548C9.36987 8.23483 12.5399 5.07483 16.4499 5.07483C20.3599 5.07483 23.5399 8.24483 23.5399 12.1548Z" fill="url(#paint35_radial_18_15559)"/>
<path d="M23.5399 12.1548C23.5399 16.0648 20.3399 16.5 16.4199 16.5C12.4999 16.5 9.36987 16.0748 9.36987 12.1548C9.36987 8.23483 12.5399 5.07483 16.4499 5.07483C20.3599 5.07483 23.5399 8.24483 23.5399 12.1548Z" fill="url(#paint36_radial_18_15559)"/>
<path d="M23.5399 12.1548C23.5399 16.0648 20.3399 16.5 16.4199 16.5C12.4999 16.5 9.36987 16.0748 9.36987 12.1548C9.36987 8.23483 12.5399 5.07483 16.4499 5.07483C20.3599 5.07483 23.5399 8.24483 23.5399 12.1548Z" fill="url(#paint37_radial_18_15559)"/>
<path d="M23.5399 12.1548C23.5399 16.0648 20.3399 16.5 16.4199 16.5C12.4999 16.5 9.36987 16.0748 9.36987 12.1548C9.36987 8.23483 12.5399 5.07483 16.4499 5.07483C20.3599 5.07483 23.5399 8.24483 23.5399 12.1548Z" fill="url(#paint38_radial_18_15559)"/>
<path d="M23.5399 12.1548C23.5399 16.0648 20.3399 16.5 16.4199 16.5C12.4999 16.5 9.36987 16.0748 9.36987 12.1548C9.36987 8.23483 12.5399 5.07483 16.4499 5.07483C20.3599 5.07483 23.5399 8.24483 23.5399 12.1548Z" fill="url(#paint39_radial_18_15559)"/>
<path d="M23.5399 12.1548C23.5399 16.0648 20.3399 16.5 16.4199 16.5C12.4999 16.5 9.36987 16.0748 9.36987 12.1548C9.36987 8.23483 12.5399 5.07483 16.4499 5.07483C20.3599 5.07483 23.5399 8.24483 23.5399 12.1548Z" fill="url(#paint40_radial_18_15559)"/>
<path d="M23.5399 12.1548C23.5399 16.0648 20.3399 16.5 16.4199 16.5C12.4999 16.5 9.36987 16.0748 9.36987 12.1548C9.36987 8.23483 12.5399 5.07483 16.4499 5.07483C20.3599 5.07483 23.5399 8.24483 23.5399 12.1548Z" fill="url(#paint41_radial_18_15559)"/>
<path d="M23.5399 12.1548C23.5399 16.0648 20.3399 16.5 16.4199 16.5C12.4999 16.5 9.36987 16.0748 9.36987 12.1548C9.36987 8.23483 12.5399 5.07483 16.4499 5.07483C20.3599 5.07483 23.5399 8.24483 23.5399 12.1548Z" fill="url(#paint42_radial_18_15559)"/>
<path d="M16.48 5.04489L10.96 7.41489L10.18 5.60489C9.74002 4.57489 10.21 3.38489 11.24 2.94489L13.05 2.16489C14.08 1.72489 15.26 2.19489 15.7 3.22489L16.48 5.04489Z" fill="url(#paint43_linear_18_15559)"/>
<path d="M16.48 5.04489L10.96 7.41489L10.18 5.60489C9.74002 4.57489 10.21 3.38489 11.24 2.94489L13.05 2.16489C14.08 1.72489 15.26 2.19489 15.7 3.22489L16.48 5.04489Z" fill="url(#paint44_linear_18_15559)"/>
<path d="M15.8999 5.29486L11.5399 7.17486C11.2199 7.30486 10.8399 7.16486 10.7099 6.84486L10.1799 5.60486L15.7099 3.23486L16.2399 4.47486C16.3699 4.78486 16.2199 5.15486 15.8999 5.29486Z" fill="url(#paint45_linear_18_15559)"/>
<path d="M17.0198 5.61493L10.9798 8.20493C10.6198 8.36493 10.1998 8.19493 10.0398 7.83493C9.88983 7.47493 10.0498 7.04493 10.4198 6.89493L16.4598 4.30493C16.8198 4.14493 17.2398 4.31493 17.3998 4.68493C17.5498 5.03493 17.3798 5.45493 17.0198 5.61493Z" fill="url(#paint46_linear_18_15559)"/>
<path d="M17.0198 5.61493L10.9798 8.20493C10.6198 8.36493 10.1998 8.19493 10.0398 7.83493C9.88983 7.47493 10.0498 7.04493 10.4198 6.89493L16.4598 4.30493C16.8198 4.14493 17.2398 4.31493 17.3998 4.68493C17.5498 5.03493 17.3798 5.45493 17.0198 5.61493Z" fill="url(#paint47_radial_18_15559)"/>
<path d="M14.9598 9.84488C14.7298 9.84488 14.5498 9.67488 14.5498 9.46488V8.75488C14.5498 8.54488 14.7398 8.37488 14.9598 8.37488C15.1898 8.37488 15.3698 8.54488 15.3698 8.75488V9.46488C15.3698 9.67488 15.1798 9.84488 14.9598 9.84488Z" fill="#433B6B"/>
<path d="M14.9598 9.84488C14.7298 9.84488 14.5498 9.67488 14.5498 9.46488V8.75488C14.5498 8.54488 14.7398 8.37488 14.9598 8.37488C15.1898 8.37488 15.3698 8.54488 15.3698 8.75488V9.46488C15.3698 9.67488 15.1798 9.84488 14.9598 9.84488Z" fill="url(#paint48_linear_18_15559)"/>
<path d="M14.9598 9.84488C14.7298 9.84488 14.5498 9.67488 14.5498 9.46488V8.75488C14.5498 8.54488 14.7398 8.37488 14.9598 8.37488C15.1898 8.37488 15.3698 8.54488 15.3698 8.75488V9.46488C15.3698 9.67488 15.1798 9.84488 14.9598 9.84488Z" fill="url(#paint49_linear_18_15559)"/>
<path d="M17.9598 9.84488C17.7298 9.84488 17.5498 9.67488 17.5498 9.46488V8.75488C17.5498 8.54488 17.7398 8.37488 17.9598 8.37488C18.1898 8.37488 18.3698 8.54488 18.3698 8.75488V9.46488C18.3698 9.67488 18.1798 9.84488 17.9598 9.84488Z" fill="#433B6B"/>
<path d="M17.9598 9.84488C17.7298 9.84488 17.5498 9.67488 17.5498 9.46488V8.75488C17.5498 8.54488 17.7398 8.37488 17.9598 8.37488C18.1898 8.37488 18.3698 8.54488 18.3698 8.75488V9.46488C18.3698 9.67488 18.1798 9.84488 17.9598 9.84488Z" fill="url(#paint50_linear_18_15559)"/>
<path d="M17.9598 9.84488C17.7298 9.84488 17.5498 9.67488 17.5498 9.46488V8.75488C17.5498 8.54488 17.7398 8.37488 17.9598 8.37488C18.1898 8.37488 18.3698 8.54488 18.3698 8.75488V9.46488C18.3698 9.67488 18.1798 9.84488 17.9598 9.84488Z" fill="url(#paint51_linear_18_15559)"/>
<path d="M20.6097 11.1348L16.5497 10.7148C16.0997 10.7148 15.7397 11.0748 15.7397 11.5248C15.7397 11.9748 16.0997 12.3348 16.5497 12.3348L20.6097 11.9148C20.8297 11.9148 21.0097 11.7348 21.0097 11.5148C21.0097 11.2948 20.8297 11.1348 20.6097 11.1348Z" fill="url(#paint52_linear_18_15559)"/>
<path d="M20.6097 11.1348L16.5497 10.7148C16.0997 10.7148 15.7397 11.0748 15.7397 11.5248C15.7397 11.9748 16.0997 12.3348 16.5497 12.3348L20.6097 11.9148C20.8297 11.9148 21.0097 11.7348 21.0097 11.5148C21.0097 11.2948 20.8297 11.1348 20.6097 11.1348Z" fill="url(#paint53_linear_18_15559)"/>
<path d="M20.6097 11.1348L16.5497 10.7148C16.0997 10.7148 15.7397 11.0748 15.7397 11.5248C15.7397 11.9748 16.0997 12.3348 16.5497 12.3348L20.6097 11.9148C20.8297 11.9148 21.0097 11.7348 21.0097 11.5148C21.0097 11.2948 20.8297 11.1348 20.6097 11.1348Z" fill="url(#paint54_radial_18_15559)"/>
<path d="M20.6097 11.1348L16.5497 10.7148C16.0997 10.7148 15.7397 11.0748 15.7397 11.5248C15.7397 11.9748 16.0997 12.3348 16.5497 12.3348L20.6097 11.9148C20.8297 11.9148 21.0097 11.7348 21.0097 11.5148C21.0097 11.2948 20.8297 11.1348 20.6097 11.1348Z" fill="url(#paint55_radial_18_15559)" fill-opacity="0.5"/>
<path d="M20.6097 11.1348L16.5497 10.7148C16.0997 10.7148 15.7397 11.0748 15.7397 11.5248C15.7397 11.9748 16.0997 12.3348 16.5497 12.3348L20.6097 11.9148C20.8297 11.9148 21.0097 11.7348 21.0097 11.5148C21.0097 11.2948 20.8297 11.1348 20.6097 11.1348Z" fill="url(#paint56_linear_18_15559)"/>
<defs>
<radialGradient id="paint0_radial_18_15559" cx="0" cy="0" r="1" gradientUnits="userSpaceOnUse" gradientTransform="translate(25.3003 3.92415) scale(11.9438 11.9438)">
<stop stop-color="#F1F2F2"/>
<stop offset="1" stop-color="#BCBEC0"/>
</radialGradient>
<radialGradient id="paint1_radial_18_15559" cx="0" cy="0" r="1" gradientUnits="userSpaceOnUse" gradientTransform="translate(25.005 4.99882) rotate(48.3108) scale(18.8413 18.8359)">
<stop offset="0.0403283" stop-color="#F7F1FF"/>
<stop offset="0.103738" stop-color="#E0DCE8"/>
</radialGradient>
<radialGradient id="paint2_radial_18_15559" cx="0" cy="0" r="1" gradientUnits="userSpaceOnUse" gradientTransform="translate(26.0075 6.00382) rotate(48.5745) scale(17.4243 17.4189)">
<stop offset="0.0815969" stop-color="#F7F1FF" stop-opacity="0"/>
<stop offset="0.21779" stop-color="#D6D1DF"/>
</radialGradient>
<radialGradient id="paint3_radial_18_15559" cx="0" cy="0" r="1" gradientUnits="userSpaceOnUse" gradientTransform="translate(4 10) rotate(48.2397) scale(18.7683 18.7683)">
<stop offset="0.0403283" stop-color="#F7F1FF"/>
<stop offset="0.103738" stop-color="#E0DCE8"/>
</radialGradient>
<radialGradient id="paint4_radial_18_15559" cx="0" cy="0" r="1" gradientUnits="userSpaceOnUse" gradientTransform="translate(5 11) rotate(48.5035) scale(17.3566 17.3565)">
<stop offset="0.0815969" stop-color="#F7F1FF" stop-opacity="0"/>
<stop offset="0.21779" stop-color="#D6D1DF"/>
</radialGradient>
<radialGradient id="paint5_radial_18_15559" cx="0" cy="0" r="1" gradientUnits="userSpaceOnUse" gradientTransform="translate(27.0925 9.51432) scale(6.3748 6.3748)">
<stop stop-color="#F1F2F2"/>
<stop offset="1" stop-color="#BCBEC0"/>
</radialGradient>
<radialGradient id="paint6_radial_18_15559" cx="0" cy="0" r="1" gradientUnits="userSpaceOnUse" gradientTransform="translate(26.9272 10.0894) rotate(48.3108) scale(10.03 10.0271)">
<stop offset="0.0403283" stop-color="#F7F1FF"/>
<stop offset="0.103738" stop-color="#E0DCE8"/>
</radialGradient>
<radialGradient id="paint7_radial_18_15559" cx="0" cy="0" r="1" gradientUnits="userSpaceOnUse" gradientTransform="translate(27.4609 10.6244) rotate(48.5745) scale(9.2756 9.27274)">
<stop offset="0.0815969" stop-color="#F7F1FF" stop-opacity="0"/>
<stop offset="0.21779" stop-color="#D6D1DF"/>
</radialGradient>
<radialGradient id="paint8_radial_18_15559" cx="0" cy="0" r="1" gradientUnits="userSpaceOnUse" gradientTransform="translate(6.16464 4.5351) scale(6.3748)">
<stop stop-color="#F1F2F2"/>
<stop offset="1" stop-color="#BCBEC0"/>
</radialGradient>
<radialGradient id="paint9_radial_18_15559" cx="0" cy="0" r="1" gradientUnits="userSpaceOnUse" gradientTransform="translate(6.00727 5.10914) rotate(48.3108) scale(10.03 10.0271)">
<stop offset="0.0403283" stop-color="#F7F1FF"/>
<stop offset="0.103738" stop-color="#E0DCE8"/>
</radialGradient>
<radialGradient id="paint10_radial_18_15559" cx="0" cy="0" r="1" gradientUnits="userSpaceOnUse" gradientTransform="translate(6.54094 5.64414) rotate(48.5745) scale(9.2756 9.27274)">
<stop offset="0.0815969" stop-color="#F7F1FF" stop-opacity="0"/>
<stop offset="0.21779" stop-color="#D6D1DF"/>
</radialGradient>
<radialGradient id="paint11_radial_18_15559" cx="0" cy="0" r="1" gradientUnits="userSpaceOnUse" gradientTransform="translate(4.02655 19.5205) scale(6.3748 6.3748)">
<stop stop-color="#F1F2F2"/>
<stop offset="1" stop-color="#BCBEC0"/>
</radialGradient>
<radialGradient id="paint12_radial_18_15559" cx="0" cy="0" r="1" gradientUnits="userSpaceOnUse" gradientTransform="translate(3.86738 20.0894) rotate(48.3108) scale(10.03 10.0271)">
<stop offset="0.0403283" stop-color="#F7F1FF"/>
<stop offset="0.103738" stop-color="#E0DCE8"/>
</radialGradient>
<radialGradient id="paint13_radial_18_15559" cx="0" cy="0" r="1" gradientUnits="userSpaceOnUse" gradientTransform="translate(4.40105 20.6244) rotate(48.5745) scale(9.2756 9.27274)">
<stop offset="0.0815969" stop-color="#F7F1FF" stop-opacity="0"/>
<stop offset="0.21779" stop-color="#D6D1DF"/>
</radialGradient>
<radialGradient id="paint14_radial_18_15559" cx="0" cy="0" r="1" gradientUnits="userSpaceOnUse" gradientTransform="translate(28.1619 22.5351) scale(6.3748)">
<stop stop-color="#F1F2F2"/>
<stop offset="1" stop-color="#BCBEC0"/>
</radialGradient>
<radialGradient id="paint15_radial_18_15559" cx="0" cy="0" r="1" gradientUnits="userSpaceOnUse" gradientTransform="translate(27.9975 23.1091) rotate(48.3108) scale(10.03 10.0271)">
<stop offset="0.0403283" stop-color="#F7F1FF"/>
<stop offset="0.103738" stop-color="#E0DCE8"/>
</radialGradient>
<radialGradient id="paint16_radial_18_15559" cx="0" cy="0" r="1" gradientUnits="userSpaceOnUse" gradientTransform="translate(28.5312 23.6441) rotate(48.5745) scale(9.2756 9.27274)">
<stop offset="0.0815969" stop-color="#F7F1FF" stop-opacity="0"/>
<stop offset="0.21779" stop-color="#D6D1DF"/>
</radialGradient>
<radialGradient id="paint17_radial_18_15559" cx="0" cy="0" r="1" gradientUnits="userSpaceOnUse" gradientTransform="translate(21.2937 20.2228) scale(18.5752)">
<stop stop-color="#FBF9FE"/>
<stop offset="1" stop-color="#B7B5B8"/>
</radialGradient>
<radialGradient id="paint18_radial_18_15559" cx="0" cy="0" r="1" gradientUnits="userSpaceOnUse" gradientTransform="translate(24.9199 14) rotate(120.763) scale(24.4387 22.4373)">
<stop offset="0.507325" stop-color="#F5F0FA"/>
<stop offset="1" stop-color="#B5B4B7"/>
</radialGradient>
<radialGradient id="paint19_radial_18_15559" cx="0" cy="0" r="1" gradientUnits="userSpaceOnUse" gradientTransform="translate(33.9199 24.5) rotate(-175.389) scale(31.1006 20.4347)">
<stop offset="0.866018" stop-color="#C5C2C9" stop-opacity="0"/>
<stop offset="0.901186" stop-color="#A8A8A9"/>
</radialGradient>
<radialGradient id="paint20_radial_18_15559" cx="0" cy="0" r="1" gradientUnits="userSpaceOnUse" gradientTransform="translate(13.9199 21.5) rotate(-162.867) scale(69.5881 51.1438)">
<stop offset="0.170689" stop-color="#C5C2C9" stop-opacity="0"/>
<stop offset="0.227343" stop-color="#A8A8A9"/>
</radialGradient>
<linearGradient id="paint21_linear_18_15559" x1="16.9199" y1="19.5" x2="16.9199" y2="30" gradientUnits="userSpaceOnUse">
<stop offset="0.136364" stop-color="#DCDDDE" stop-opacity="0"/>
<stop offset="1" stop-color="#997AB7"/>
</linearGradient>
<radialGradient id="paint22_radial_18_15559" cx="0" cy="0" r="1" gradientUnits="userSpaceOnUse" gradientTransform="translate(19.9199 24) rotate(90) scale(2 4.75)">
<stop stop-color="#9C899C"/>
<stop offset="0.679688" stop-color="#D6D7D9" stop-opacity="0"/>
</radialGradient>
<linearGradient id="paint23_linear_18_15559" x1="18.4634" y1="23.5639" x2="17.4655" y2="23.5639" gradientUnits="userSpaceOnUse">
<stop stop-color="#55A7FC"/>
<stop offset="1" stop-color="#4980E2"/>
</linearGradient>
<linearGradient id="paint24_linear_18_15559" x1="20.4734" y1="23.5666" x2="19.4755" y2="23.5666" gradientUnits="userSpaceOnUse">
<stop stop-color="#55A7FC"/>
<stop offset="1" stop-color="#4980E2"/>
</linearGradient>
<linearGradient id="paint25_linear_18_15559" x1="22.4634" y1="23.5666" x2="21.4655" y2="23.5666" gradientUnits="userSpaceOnUse">
<stop stop-color="#55A7FC"/>
<stop offset="1" stop-color="#4980E2"/>
</linearGradient>
<linearGradient id="paint26_linear_18_15559" x1="22.5801" y1="19.6818" x2="17.4582" y2="19.6818" gradientUnits="userSpaceOnUse">
<stop stop-color="#55A7FC"/>
<stop offset="1" stop-color="#4980E2"/>
</linearGradient>
<radialGradient id="paint27_radial_18_15559" cx="0" cy="0" r="1" gradientUnits="userSpaceOnUse" gradientTransform="translate(19.9199 19.5) rotate(168.111) scale(9.70824 2.21255)">
<stop stop-color="#3462D5"/>
<stop offset="0.352784" stop-color="#3462D5" stop-opacity="0"/>
</radialGradient>
<linearGradient id="paint28_linear_18_15559" x1="23.9199" y1="15.5" x2="9.41992" y2="15.5" gradientUnits="userSpaceOnUse">
<stop stop-color="#55A9FC"/>
<stop offset="1" stop-color="#4267C8"/>
</linearGradient>
<radialGradient id="paint29_radial_18_15559" cx="0" cy="0" r="1" gradientUnits="userSpaceOnUse" gradientTransform="translate(16.4199 5.5) rotate(90) scale(15.5 17.7716)">
<stop offset="0.903226" stop-color="#3462D5" stop-opacity="0"/>
<stop offset="0.983333" stop-color="#3462D5"/>
</radialGradient>
<radialGradient id="paint30_radial_18_15559" cx="0" cy="0" r="1" gradientUnits="userSpaceOnUse" gradientTransform="translate(-2.08008 25) rotate(-20.8978) scale(29.4364 7.91151)">
<stop offset="0.911966" stop-color="#3462D5" stop-opacity="0"/>
<stop offset="0.979434" stop-color="#3462D5"/>
</radialGradient>
<radialGradient id="paint31_radial_18_15559" cx="0" cy="0" r="1" gradientUnits="userSpaceOnUse" gradientTransform="translate(39.4199 27) rotate(-156.915) scale(33.1549 10.6536)">
<stop offset="0.963278" stop-color="#3462D5" stop-opacity="0"/>
<stop offset="0.979434" stop-color="#3462D5"/>
</radialGradient>
<radialGradient id="paint32_radial_18_15559" cx="0" cy="0" r="1" gradientUnits="userSpaceOnUse" gradientTransform="translate(16.4199 5.5) rotate(90) scale(12 11.9062)">
<stop offset="0.873698" stop-color="#3D59B8"/>
<stop offset="0.955729" stop-color="#2F4BAA" stop-opacity="0"/>
</radialGradient>
<radialGradient id="paint33_radial_18_15559" cx="0" cy="0" r="1" gradientUnits="userSpaceOnUse" gradientTransform="translate(20.9199 14.5) rotate(-123.69) scale(1.80278 2.93514)">
<stop stop-color="#3D59B8"/>
<stop offset="1" stop-color="#2F4BAA" stop-opacity="0"/>
</radialGradient>
<radialGradient id="paint34_radial_18_15559" cx="0" cy="0" r="1" gradientUnits="userSpaceOnUse" gradientTransform="translate(11.4199 13.5) rotate(-45) scale(2.82843 4.45256)">
<stop stop-color="#3D59B8"/>
<stop offset="1" stop-color="#2F4BAA" stop-opacity="0"/>
</radialGradient>
<radialGradient id="paint35_radial_18_15559" cx="0" cy="0" r="1" gradientUnits="userSpaceOnUse" gradientTransform="translate(18.2938 7.93893) rotate(0.247704) scale(14.1263 10.6868)">
<stop offset="0.119232" stop-color="#F1F2F2"/>
<stop offset="0.530753" stop-color="#DDD5ED"/>
<stop offset="0.848807" stop-color="#B1A1D1"/>
</radialGradient>
<radialGradient id="paint36_radial_18_15559" cx="0" cy="0" r="1" gradientUnits="userSpaceOnUse" gradientTransform="translate(18.4199 12) rotate(7.12502) scale(4.03113 1.08356)">
<stop stop-color="#9C899C"/>
<stop offset="0.675781" stop-color="#D6D7D9" stop-opacity="0"/>
</radialGradient>
<radialGradient id="paint37_radial_18_15559" cx="0" cy="0" r="1" gradientUnits="userSpaceOnUse" gradientTransform="translate(17.9199 12) rotate(-7.12501) scale(4.03113 1.08356)">
<stop stop-color="#9C899C"/>
<stop offset="0.675781" stop-color="#D6D7D9" stop-opacity="0"/>
</radialGradient>
<radialGradient id="paint38_radial_18_15559" cx="0" cy="0" r="1" gradientUnits="userSpaceOnUse" gradientTransform="translate(17.9199 9.5) rotate(90) scale(1 0.618546)">
<stop stop-color="#9C899C"/>
<stop offset="1" stop-color="#D6D7D9" stop-opacity="0"/>
</radialGradient>
<radialGradient id="paint39_radial_18_15559" cx="0" cy="0" r="1" gradientUnits="userSpaceOnUse" gradientTransform="translate(14.9199 9.5) rotate(90) scale(1 0.618546)">
<stop stop-color="#9C899C"/>
<stop offset="1" stop-color="#D6D7D9" stop-opacity="0"/>
</radialGradient>
<radialGradient id="paint40_radial_18_15559" cx="0" cy="0" r="1" gradientUnits="userSpaceOnUse" gradientTransform="translate(16.4199 11.5) scale(1.5)">
<stop offset="0.15625" stop-color="#9C899C"/>
<stop offset="1" stop-color="#D6D7D9" stop-opacity="0"/>
</radialGradient>
<radialGradient id="paint41_radial_18_15559" cx="0" cy="0" r="1" gradientUnits="userSpaceOnUse" gradientTransform="translate(13.9199 7) rotate(63.435) scale(2.23607 11.6695)">
<stop offset="0.0223122" stop-color="#807B85"/>
<stop offset="0.559375" stop-color="#DADBDC" stop-opacity="0"/>
</radialGradient>
<radialGradient id="paint42_radial_18_15559" cx="0" cy="0" r="1" gradientUnits="userSpaceOnUse" gradientTransform="translate(27.4199 13) rotate(-172.875) scale(20.1556 11.6399)">
<stop offset="0.875385" stop-color="#C5C2C9" stop-opacity="0"/>
<stop offset="0.906538" stop-color="#A8A8A9"/>
</radialGradient>
<linearGradient id="paint43_linear_18_15559" x1="10.1659" y1="5.58033" x2="15.6923" y2="3.20921" gradientUnits="userSpaceOnUse">
<stop offset="0.00558659" stop-color="#513468"/>
<stop offset="1" stop-color="#1C1C1C"/>
</linearGradient>
<linearGradient id="paint44_linear_18_15559" x1="12.4199" y1="3" x2="14.4199" y2="8.5" gradientUnits="userSpaceOnUse">
<stop stop-color="#6D5D7B"/>
<stop offset="0.555639" stop-color="#1C1C1C" stop-opacity="0"/>
</linearGradient>
<linearGradient id="paint45_linear_18_15559" x1="17.9199" y1="3" x2="10.4199" y2="6.5" gradientUnits="userSpaceOnUse">
<stop offset="0.262416" stop-color="#55BEEF"/>
<stop offset="0.9888" stop-color="#3A73B8"/>
</linearGradient>
<linearGradient id="paint46_linear_18_15559" x1="10.0395" y1="7.83013" x2="17.3971" y2="4.67332" gradientUnits="userSpaceOnUse">
<stop offset="0.00558659" stop-color="#513468"/>
<stop offset="1" stop-color="#1C1C1C"/>
</linearGradient>
<radialGradient id="paint47_radial_18_15559" cx="0" cy="0" r="1" gradientUnits="userSpaceOnUse" gradientTransform="translate(13.7183 6.25173) rotate(-24.3005) scale(7.90171 0.623568)">
<stop offset="0.00558659" stop-color="#695E75"/>
<stop offset="1" stop-color="#695E75" stop-opacity="0"/>
</radialGradient>
<linearGradient id="paint48_linear_18_15559" x1="15.9199" y1="9" x2="14.4199" y2="9" gradientUnits="userSpaceOnUse">
<stop offset="0.612955" stop-color="#62566C"/>
<stop offset="0.90625" stop-color="#34252B"/>
</linearGradient>
<linearGradient id="paint49_linear_18_15559" x1="14.9199" y1="8" x2="14.9199" y2="10" gradientUnits="userSpaceOnUse">
<stop offset="0.612955" stop-color="#34252B" stop-opacity="0"/>
<stop offset="0.834974" stop-color="#34252B"/>
</linearGradient>
<linearGradient id="paint50_linear_18_15559" x1="18.9199" y1="9" x2="17.4199" y2="9" gradientUnits="userSpaceOnUse">
<stop offset="0.612955" stop-color="#62566C"/>
<stop offset="0.90625" stop-color="#34252B"/>
</linearGradient>
<linearGradient id="paint51_linear_18_15559" x1="17.9199" y1="8" x2="17.9199" y2="10" gradientUnits="userSpaceOnUse">
<stop offset="0.612955" stop-color="#34252B" stop-opacity="0"/>
<stop offset="0.834974" stop-color="#34252B"/>
</linearGradient>
<linearGradient id="paint52_linear_18_15559" x1="15.7351" y1="11.5335" x2="21.0047" y2="11.5335" gradientUnits="userSpaceOnUse">
<stop stop-color="#DB6541"/>
<stop offset="1" stop-color="#FD9E3C"/>
</linearGradient>
<linearGradient id="paint53_linear_18_15559" x1="17.9199" y1="13.5" x2="18.4199" y2="7" gradientUnits="userSpaceOnUse">
<stop offset="0.34614" stop-color="#D2785A" stop-opacity="0"/>
<stop offset="0.5125" stop-color="#6F2911"/>
</linearGradient>
<radialGradient id="paint54_radial_18_15559" cx="0" cy="0" r="1" gradientUnits="userSpaceOnUse" gradientTransform="translate(17.9199 11.5) scale(13 13)">
<stop offset="0.0600962" stop-color="#AA3E27" stop-opacity="0"/>
<stop offset="0.375" stop-color="#AA3E27"/>
</radialGradient>
<radialGradient id="paint55_radial_18_15559" cx="0" cy="0" r="1" gradientUnits="userSpaceOnUse" gradientTransform="translate(20.4199 11.5) rotate(146.31) scale(1.80278)">
<stop stop-color="#FFAA5E"/>
<stop offset="0.231402" stop-color="#FF7C00" stop-opacity="0"/>
</radialGradient>
<linearGradient id="paint56_linear_18_15559" x1="17.9199" y1="13.5" x2="17.4199" y2="7" gradientUnits="userSpaceOnUse">
<stop offset="0.163101" stop-color="#9C4326"/>
<stop offset="0.246922" stop-color="#D2785A" stop-opacity="0"/>
</linearGradient>
</defs>
</svg>