<svg xmlns="http://www.w3.org/2000/svg" width="32" height="32" viewBox="0 0 32 32" fill="none">
<path d="M18.6045 3.74448L20.8076 8.36425C21.1488 9.05025 21.7709 9.5326 22.4934 9.63978L27.4208 10.3365C29.9594 10.7117 30.917 13.4375 28.9482 15.4219L25.4951 18.9844C24.9332 19.5417 24.6723 20.3671 24.8128 21.171L25.5889 26.2344C26.0304 28.8605 23.8185 30.7236 21.5809 29.5231L17.0454 27.1114C16.4132 26.7791 15.6707 26.7791 15.0385 27.1114L10.5031 29.5231C8.26542 30.7128 5.91699 28.9062 6.57324 26.1719L7.33887 21.2188C7.47935 20.4148 7.21846 19.5895 6.65654 19.0322L3.1357 15.3438C1.15136 13.3828 2.12447 10.7117 4.66313 10.3365L9.40933 9.63978C10.1318 9.5326 10.9609 9.06097 11.292 8.36425L13.5397 3.74448C14.6836 1.41851 17.4706 1.41851 18.6045 3.74448Z" fill="url(#paint0_radial_18_14837)"/>
<path d="M18.6045 3.74448L20.8076 8.36425C21.1488 9.05025 21.7709 9.5326 22.4934 9.63978L27.4208 10.3365C29.9594 10.7117 30.917 13.4375 28.9482 15.4219L25.4951 18.9844C24.9332 19.5417 24.6723 20.3671 24.8128 21.171L25.5889 26.2344C26.0304 28.8605 23.8185 30.7236 21.5809 29.5231L17.0454 27.1114C16.4132 26.7791 15.6707 26.7791 15.0385 27.1114L10.5031 29.5231C8.26542 30.7128 5.91699 28.9062 6.57324 26.1719L7.33887 21.2188C7.47935 20.4148 7.21846 19.5895 6.65654 19.0322L3.1357 15.3438C1.15136 13.3828 2.12447 10.7117 4.66313 10.3365L9.40933 9.63978C10.1318 9.5326 10.9609 9.06097 11.292 8.36425L13.5397 3.74448C14.6836 1.41851 17.4706 1.41851 18.6045 3.74448Z" fill="url(#paint1_radial_18_14837)"/>
<path d="M18.6045 3.74448L20.8076 8.36425C21.1488 9.05025 21.7709 9.5326 22.4934 9.63978L27.4208 10.3365C29.9594 10.7117 30.917 13.4375 28.9482 15.4219L25.4951 18.9844C24.9332 19.5417 24.6723 20.3671 24.8128 21.171L25.5889 26.2344C26.0304 28.8605 23.8185 30.7236 21.5809 29.5231L17.0454 27.1114C16.4132 26.7791 15.6707 26.7791 15.0385 27.1114L10.5031 29.5231C8.26542 30.7128 5.91699 28.9062 6.57324 26.1719L7.33887 21.2188C7.47935 20.4148 7.21846 19.5895 6.65654 19.0322L3.1357 15.3438C1.15136 13.3828 2.12447 10.7117 4.66313 10.3365L9.40933 9.63978C10.1318 9.5326 10.9609 9.06097 11.292 8.36425L13.5397 3.74448C14.6836 1.41851 17.4706 1.41851 18.6045 3.74448Z" fill="url(#paint2_radial_18_14837)"/>
<path d="M18.6045 3.74448L20.8076 8.36425C21.1488 9.05025 21.7709 9.5326 22.4934 9.63978L27.4208 10.3365C29.9594 10.7117 30.917 13.4375 28.9482 15.4219L25.4951 18.9844C24.9332 19.5417 24.6723 20.3671 24.8128 21.171L25.5889 26.2344C26.0304 28.8605 23.8185 30.7236 21.5809 29.5231L17.0454 27.1114C16.4132 26.7791 15.6707 26.7791 15.0385 27.1114L10.5031 29.5231C8.26542 30.7128 5.91699 28.9062 6.57324 26.1719L7.33887 21.2188C7.47935 20.4148 7.21846 19.5895 6.65654 19.0322L3.1357 15.3438C1.15136 13.3828 2.12447 10.7117 4.66313 10.3365L9.40933 9.63978C10.1318 9.5326 10.9609 9.06097 11.292 8.36425L13.5397 3.74448C14.6836 1.41851 17.4706 1.41851 18.6045 3.74448Z" fill="url(#paint3_radial_18_14837)"/>
<path d="M18.6045 3.74448L20.8076 8.36425C21.1488 9.05025 21.7709 9.5326 22.4934 9.63978L27.4208 10.3365C29.9594 10.7117 30.917 13.4375 28.9482 15.4219L25.4951 18.9844C24.9332 19.5417 24.6723 20.3671 24.8128 21.171L25.5889 26.2344C26.0304 28.8605 23.8185 30.7236 21.5809 29.5231L17.0454 27.1114C16.4132 26.7791 15.6707 26.7791 15.0385 27.1114L10.5031 29.5231C8.26542 30.7128 5.91699 28.9062 6.57324 26.1719L7.33887 21.2188C7.47935 20.4148 7.21846 19.5895 6.65654 19.0322L3.1357 15.3438C1.15136 13.3828 2.12447 10.7117 4.66313 10.3365L9.40933 9.63978C10.1318 9.5326 10.9609 9.06097 11.292 8.36425L13.5397 3.74448C14.6836 1.41851 17.4706 1.41851 18.6045 3.74448Z" fill="url(#paint4_radial_18_14837)"/>
<path d="M18.6045 3.74448L20.8076 8.36425C21.1488 9.05025 21.7709 9.5326 22.4934 9.63978L27.4208 10.3365C29.9594 10.7117 30.917 13.4375 28.9482 15.4219L25.4951 18.9844C24.9332 19.5417 24.6723 20.3671 24.8128 21.171L25.5889 26.2344C26.0304 28.8605 23.8185 30.7236 21.5809 29.5231L17.0454 27.1114C16.4132 26.7791 15.6707 26.7791 15.0385 27.1114L10.5031 29.5231C8.26542 30.7128 5.91699 28.9062 6.57324 26.1719L7.33887 21.2188C7.47935 20.4148 7.21846 19.5895 6.65654 19.0322L3.1357 15.3438C1.15136 13.3828 2.12447 10.7117 4.66313 10.3365L9.40933 9.63978C10.1318 9.5326 10.9609 9.06097 11.292 8.36425L13.5397 3.74448C14.6836 1.41851 17.4706 1.41851 18.6045 3.74448Z" fill="url(#paint5_radial_18_14837)"/>
<path d="M18.6045 3.74448L20.8076 8.36425C21.1488 9.05025 21.7709 9.5326 22.4934 9.63978L27.4208 10.3365C29.9594 10.7117 30.917 13.4375 28.9482 15.4219L25.4951 18.9844C24.9332 19.5417 24.6723 20.3671 24.8128 21.171L25.5889 26.2344C26.0304 28.8605 23.8185 30.7236 21.5809 29.5231L17.0454 27.1114C16.4132 26.7791 15.6707 26.7791 15.0385 27.1114L10.5031 29.5231C8.26542 30.7128 5.91699 28.9062 6.57324 26.1719L7.33887 21.2188C7.47935 20.4148 7.21846 19.5895 6.65654 19.0322L3.1357 15.3438C1.15136 13.3828 2.12447 10.7117 4.66313 10.3365L9.40933 9.63978C10.1318 9.5326 10.9609 9.06097 11.292 8.36425L13.5397 3.74448C14.6836 1.41851 17.4706 1.41851 18.6045 3.74448Z" fill="url(#paint6_radial_18_14837)"/>
<path d="M18.6045 3.74448L20.8076 8.36425C21.1488 9.05025 21.7709 9.5326 22.4934 9.63978L27.4208 10.3365C29.9594 10.7117 30.917 13.4375 28.9482 15.4219L25.4951 18.9844C24.9332 19.5417 24.6723 20.3671 24.8128 21.171L25.5889 26.2344C26.0304 28.8605 23.8185 30.7236 21.5809 29.5231L17.0454 27.1114C16.4132 26.7791 15.6707 26.7791 15.0385 27.1114L10.5031 29.5231C8.26542 30.7128 5.91699 28.9062 6.57324 26.1719L7.33887 21.2188C7.47935 20.4148 7.21846 19.5895 6.65654 19.0322L3.1357 15.3438C1.15136 13.3828 2.12447 10.7117 4.66313 10.3365L9.40933 9.63978C10.1318 9.5326 10.9609 9.06097 11.292 8.36425L13.5397 3.74448C14.6836 1.41851 17.4706 1.41851 18.6045 3.74448Z" fill="url(#paint7_radial_18_14837)"/>
<path d="M18.6045 3.74448L20.8076 8.36425C21.1488 9.05025 21.7709 9.5326 22.4934 9.63978L27.4208 10.3365C29.9594 10.7117 30.917 13.4375 28.9482 15.4219L25.4951 18.9844C24.9332 19.5417 24.6723 20.3671 24.8128 21.171L25.5889 26.2344C26.0304 28.8605 23.8185 30.7236 21.5809 29.5231L17.0454 27.1114C16.4132 26.7791 15.6707 26.7791 15.0385 27.1114L10.5031 29.5231C8.26542 30.7128 5.91699 28.9062 6.57324 26.1719L7.33887 21.2188C7.47935 20.4148 7.21846 19.5895 6.65654 19.0322L3.1357 15.3438C1.15136 13.3828 2.12447 10.7117 4.66313 10.3365L9.40933 9.63978C10.1318 9.5326 10.9609 9.06097 11.292 8.36425L13.5397 3.74448C14.6836 1.41851 17.4706 1.41851 18.6045 3.74448Z" fill="url(#paint8_radial_18_14837)"/>
<path d="M18.6045 3.74448L20.8076 8.36425C21.1488 9.05025 21.7709 9.5326 22.4934 9.63978L27.4208 10.3365C29.9594 10.7117 30.917 13.4375 28.9482 15.4219L25.4951 18.9844C24.9332 19.5417 24.6723 20.3671 24.8128 21.171L25.5889 26.2344C26.0304 28.8605 23.8185 30.7236 21.5809 29.5231L17.0454 27.1114C16.4132 26.7791 15.6707 26.7791 15.0385 27.1114L10.5031 29.5231C8.26542 30.7128 5.91699 28.9062 6.57324 26.1719L7.33887 21.2188C7.47935 20.4148 7.21846 19.5895 6.65654 19.0322L3.1357 15.3438C1.15136 13.3828 2.12447 10.7117 4.66313 10.3365L9.40933 9.63978C10.1318 9.5326 10.9609 9.06097 11.292 8.36425L13.5397 3.74448C14.6836 1.41851 17.4706 1.41851 18.6045 3.74448Z" fill="url(#paint9_radial_18_14837)"/>
<path d="M18.6045 3.74448L20.8076 8.36425C21.1488 9.05025 21.7709 9.5326 22.4934 9.63978L27.4208 10.3365C29.9594 10.7117 30.917 13.4375 28.9482 15.4219L25.4951 18.9844C24.9332 19.5417 24.6723 20.3671 24.8128 21.171L25.5889 26.2344C26.0304 28.8605 23.8185 30.7236 21.5809 29.5231L17.0454 27.1114C16.4132 26.7791 15.6707 26.7791 15.0385 27.1114L10.5031 29.5231C8.26542 30.7128 5.91699 28.9062 6.57324 26.1719L7.33887 21.2188C7.47935 20.4148 7.21846 19.5895 6.65654 19.0322L3.1357 15.3438C1.15136 13.3828 2.12447 10.7117 4.66313 10.3365L9.40933 9.63978C10.1318 9.5326 10.9609 9.06097 11.292 8.36425L13.5397 3.74448C14.6836 1.41851 17.4706 1.41851 18.6045 3.74448Z" fill="url(#paint10_radial_18_14837)"/>
<path d="M18.6045 3.74448L20.8076 8.36425C21.1488 9.05025 21.7709 9.5326 22.4934 9.63978L27.4208 10.3365C29.9594 10.7117 30.917 13.4375 28.9482 15.4219L25.4951 18.9844C24.9332 19.5417 24.6723 20.3671 24.8128 21.171L25.5889 26.2344C26.0304 28.8605 23.8185 30.7236 21.5809 29.5231L17.0454 27.1114C16.4132 26.7791 15.6707 26.7791 15.0385 27.1114L10.5031 29.5231C8.26542 30.7128 5.91699 28.9062 6.57324 26.1719L7.33887 21.2188C7.47935 20.4148 7.21846 19.5895 6.65654 19.0322L3.1357 15.3438C1.15136 13.3828 2.12447 10.7117 4.66313 10.3365L9.40933 9.63978C10.1318 9.5326 10.9609 9.06097 11.292 8.36425L13.5397 3.74448C14.6836 1.41851 17.4706 1.41851 18.6045 3.74448Z" fill="url(#paint11_radial_18_14837)"/>
<path d="M18.6045 3.74448L20.8076 8.36425C21.1488 9.05025 21.7709 9.5326 22.4934 9.63978L27.4208 10.3365C29.9594 10.7117 30.917 13.4375 28.9482 15.4219L25.4951 18.9844C24.9332 19.5417 24.6723 20.3671 24.8128 21.171L25.5889 26.2344C26.0304 28.8605 23.8185 30.7236 21.5809 29.5231L17.0454 27.1114C16.4132 26.7791 15.6707 26.7791 15.0385 27.1114L10.5031 29.5231C8.26542 30.7128 5.91699 28.9062 6.57324 26.1719L7.33887 21.2188C7.47935 20.4148 7.21846 19.5895 6.65654 19.0322L3.1357 15.3438C1.15136 13.3828 2.12447 10.7117 4.66313 10.3365L9.40933 9.63978C10.1318 9.5326 10.9609 9.06097 11.292 8.36425L13.5397 3.74448C14.6836 1.41851 17.4706 1.41851 18.6045 3.74448Z" fill="url(#paint12_radial_18_14837)"/>
<path d="M18.6045 3.74448L20.8076 8.36425C21.1488 9.05025 21.7709 9.5326 22.4934 9.63978L27.4208 10.3365C29.9594 10.7117 30.917 13.4375 28.9482 15.4219L25.4951 18.9844C24.9332 19.5417 24.6723 20.3671 24.8128 21.171L25.5889 26.2344C26.0304 28.8605 23.8185 30.7236 21.5809 29.5231L17.0454 27.1114C16.4132 26.7791 15.6707 26.7791 15.0385 27.1114L10.5031 29.5231C8.26542 30.7128 5.91699 28.9062 6.57324 26.1719L7.33887 21.2188C7.47935 20.4148 7.21846 19.5895 6.65654 19.0322L3.1357 15.3438C1.15136 13.3828 2.12447 10.7117 4.66313 10.3365L9.40933 9.63978C10.1318 9.5326 10.9609 9.06097 11.292 8.36425L13.5397 3.74448C14.6836 1.41851 17.4706 1.41851 18.6045 3.74448Z" fill="url(#paint13_radial_18_14837)"/>
<path d="M18.6045 3.74448L20.8076 8.36425C21.1488 9.05025 21.7709 9.5326 22.4934 9.63978L27.4208 10.3365C29.9594 10.7117 30.917 13.4375 28.9482 15.4219L25.4951 18.9844C24.9332 19.5417 24.6723 20.3671 24.8128 21.171L25.5889 26.2344C26.0304 28.8605 23.8185 30.7236 21.5809 29.5231L17.0454 27.1114C16.4132 26.7791 15.6707 26.7791 15.0385 27.1114L10.5031 29.5231C8.26542 30.7128 5.91699 28.9062 6.57324 26.1719L7.33887 21.2188C7.47935 20.4148 7.21846 19.5895 6.65654 19.0322L3.1357 15.3438C1.15136 13.3828 2.12447 10.7117 4.66313 10.3365L9.40933 9.63978C10.1318 9.5326 10.9609 9.06097 11.292 8.36425L13.5397 3.74448C14.6836 1.41851 17.4706 1.41851 18.6045 3.74448Z" fill="url(#paint14_radial_18_14837)"/>
<path d="M18.6045 3.74448L20.8076 8.36425C21.1488 9.05025 21.7709 9.5326 22.4934 9.63978L27.4208 10.3365C29.9594 10.7117 30.917 13.4375 28.9482 15.4219L25.4951 18.9844C24.9332 19.5417 24.6723 20.3671 24.8128 21.171L25.5889 26.2344C26.0304 28.8605 23.8185 30.7236 21.5809 29.5231L17.0454 27.1114C16.4132 26.7791 15.6707 26.7791 15.0385 27.1114L10.5031 29.5231C8.26542 30.7128 5.91699 28.9062 6.57324 26.1719L7.33887 21.2188C7.47935 20.4148 7.21846 19.5895 6.65654 19.0322L3.1357 15.3438C1.15136 13.3828 2.12447 10.7117 4.66313 10.3365L9.40933 9.63978C10.1318 9.5326 10.9609 9.06097 11.292 8.36425L13.5397 3.74448C14.6836 1.41851 17.4706 1.41851 18.6045 3.74448Z" fill="url(#paint15_radial_18_14837)"/>
<path d="M18.6045 3.74448L20.8076 8.36425C21.1488 9.05025 21.7709 9.5326 22.4934 9.63978L27.4208 10.3365C29.9594 10.7117 30.917 13.4375 28.9482 15.4219L25.4951 18.9844C24.9332 19.5417 24.6723 20.3671 24.8128 21.171L25.5889 26.2344C26.0304 28.8605 23.8185 30.7236 21.5809 29.5231L17.0454 27.1114C16.4132 26.7791 15.6707 26.7791 15.0385 27.1114L10.5031 29.5231C8.26542 30.7128 5.91699 28.9062 6.57324 26.1719L7.33887 21.2188C7.47935 20.4148 7.21846 19.5895 6.65654 19.0322L3.1357 15.3438C1.15136 13.3828 2.12447 10.7117 4.66313 10.3365L9.40933 9.63978C10.1318 9.5326 10.9609 9.06097 11.292 8.36425L13.5397 3.74448C14.6836 1.41851 17.4706 1.41851 18.6045 3.74448Z" fill="url(#paint16_radial_18_14837)"/>
<path d="M18.6045 3.74448L20.8076 8.36425C21.1488 9.05025 21.7709 9.5326 22.4934 9.63978L27.4208 10.3365C29.9594 10.7117 30.917 13.4375 28.9482 15.4219L25.4951 18.9844C24.9332 19.5417 24.6723 20.3671 24.8128 21.171L25.5889 26.2344C26.0304 28.8605 23.8185 30.7236 21.5809 29.5231L17.0454 27.1114C16.4132 26.7791 15.6707 26.7791 15.0385 27.1114L10.5031 29.5231C8.26542 30.7128 5.91699 28.9062 6.57324 26.1719L7.33887 21.2188C7.47935 20.4148 7.21846 19.5895 6.65654 19.0322L3.1357 15.3438C1.15136 13.3828 2.12447 10.7117 4.66313 10.3365L9.40933 9.63978C10.1318 9.5326 10.9609 9.06097 11.292 8.36425L13.5397 3.74448C14.6836 1.41851 17.4706 1.41851 18.6045 3.74448Z" fill="url(#paint17_radial_18_14837)"/>
<path d="M18.6045 3.74448L20.8076 8.36425C21.1488 9.05025 21.7709 9.5326 22.4934 9.63978L27.4208 10.3365C29.9594 10.7117 30.917 13.4375 28.9482 15.4219L25.4951 18.9844C24.9332 19.5417 24.6723 20.3671 24.8128 21.171L25.5889 26.2344C26.0304 28.8605 23.8185 30.7236 21.5809 29.5231L17.0454 27.1114C16.4132 26.7791 15.6707 26.7791 15.0385 27.1114L10.5031 29.5231C8.26542 30.7128 5.91699 28.9062 6.57324 26.1719L7.33887 21.2188C7.47935 20.4148 7.21846 19.5895 6.65654 19.0322L3.1357 15.3438C1.15136 13.3828 2.12447 10.7117 4.66313 10.3365L9.40933 9.63978C10.1318 9.5326 10.9609 9.06097 11.292 8.36425L13.5397 3.74448C14.6836 1.41851 17.4706 1.41851 18.6045 3.74448Z" fill="url(#paint18_radial_18_14837)"/>
<path d="M18.6045 3.74448L20.8076 8.36425C21.1488 9.05025 21.7709 9.5326 22.4934 9.63978L27.4208 10.3365C29.9594 10.7117 30.917 13.4375 28.9482 15.4219L25.4951 18.9844C24.9332 19.5417 24.6723 20.3671 24.8128 21.171L25.5889 26.2344C26.0304 28.8605 23.8185 30.7236 21.5809 29.5231L17.0454 27.1114C16.4132 26.7791 15.6707 26.7791 15.0385 27.1114L10.5031 29.5231C8.26542 30.7128 5.91699 28.9062 6.57324 26.1719L7.33887 21.2188C7.47935 20.4148 7.21846 19.5895 6.65654 19.0322L3.1357 15.3438C1.15136 13.3828 2.12447 10.7117 4.66313 10.3365L9.40933 9.63978C10.1318 9.5326 10.9609 9.06097 11.292 8.36425L13.5397 3.74448C14.6836 1.41851 17.4706 1.41851 18.6045 3.74448Z" fill="url(#paint19_radial_18_14837)"/>
<path d="M18.6045 3.74448L20.8076 8.36425C21.1488 9.05025 21.7709 9.5326 22.4934 9.63978L27.4208 10.3365C29.9594 10.7117 30.917 13.4375 28.9482 15.4219L25.4951 18.9844C24.9332 19.5417 24.6723 20.3671 24.8128 21.171L25.5889 26.2344C26.0304 28.8605 23.8185 30.7236 21.5809 29.5231L17.0454 27.1114C16.4132 26.7791 15.6707 26.7791 15.0385 27.1114L10.5031 29.5231C8.26542 30.7128 5.91699 28.9062 6.57324 26.1719L7.33887 21.2188C7.47935 20.4148 7.21846 19.5895 6.65654 19.0322L3.1357 15.3438C1.15136 13.3828 2.12447 10.7117 4.66313 10.3365L9.40933 9.63978C10.1318 9.5326 10.9609 9.06097 11.292 8.36425L13.5397 3.74448C14.6836 1.41851 17.4706 1.41851 18.6045 3.74448Z" fill="url(#paint20_radial_18_14837)"/>
<defs>
<radialGradient id="paint0_radial_18_14837" cx="0" cy="0" r="1" gradientUnits="userSpaceOnUse" gradientTransform="translate(24.542 8.96877) rotate(132.939) scale(19.9803 19.7731)">
<stop stop-color="#F7C334"/>
<stop offset="1" stop-color="#FAC832"/>
</radialGradient>
<radialGradient id="paint1_radial_18_14837" cx="0" cy="0" r="1" gradientUnits="userSpaceOnUse" gradientTransform="translate(16.0385 15.9478) rotate(90) scale(13.9478 13.9614)">
<stop stop-color="#DDBA38"/>
<stop offset="1" stop-color="#DDBA38" stop-opacity="0"/>
</radialGradient>
<radialGradient id="paint2_radial_18_14837" cx="0" cy="0" r="1" gradientUnits="userSpaceOnUse" gradientTransform="translate(7.05999 10.0815) rotate(74.0546) scale(2.26515 7.5594)">
<stop stop-color="#DDBA38"/>
<stop offset="1" stop-color="#DDBA38" stop-opacity="0"/>
</radialGradient>
<radialGradient id="paint3_radial_18_14837" cx="0" cy="0" r="1" gradientUnits="userSpaceOnUse" gradientTransform="translate(2.07715 11.5205) rotate(16.0828) scale(3.93102 3.93486)">
<stop stop-color="#B5953A"/>
<stop offset="1" stop-color="#B5953A" stop-opacity="0"/>
</radialGradient>
<radialGradient id="paint4_radial_18_14837" cx="0" cy="0" r="1" gradientUnits="userSpaceOnUse" gradientTransform="translate(8.88795 30.8113) rotate(-58.4957) scale(2.82823 2.83099)">
<stop stop-color="#C47E42"/>
<stop offset="1" stop-color="#C47E42" stop-opacity="0"/>
</radialGradient>
<radialGradient id="paint5_radial_18_14837" cx="0" cy="0" r="1" gradientUnits="userSpaceOnUse" gradientTransform="translate(31.0568 11.6761) rotate(150.751) scale(2.2288 2.93061)">
<stop stop-color="#FFF246"/>
<stop offset="1" stop-color="#FFF246" stop-opacity="0"/>
</radialGradient>
<radialGradient id="paint6_radial_18_14837" cx="0" cy="0" r="1" gradientUnits="userSpaceOnUse" gradientTransform="translate(26 29.5) rotate(21.8014) scale(2.69258 1.34629)">
<stop stop-color="#FFF246"/>
<stop offset="1" stop-color="#FFF246" stop-opacity="0"/>
</radialGradient>
<radialGradient id="paint7_radial_18_14837" cx="0" cy="0" r="1" gradientUnits="userSpaceOnUse" gradientTransform="translate(22 9) rotate(-45) scale(9.19239)">
<stop offset="0.113127" stop-color="#FFF249"/>
<stop offset="0.298269" stop-color="#FFF249" stop-opacity="0"/>
</radialGradient>
<radialGradient id="paint8_radial_18_14837" cx="0" cy="0" r="1" gradientUnits="userSpaceOnUse" gradientTransform="translate(25.5 23) rotate(-18.435) scale(6.32455 13.1926)">
<stop offset="0.0592265" stop-color="#FFF249"/>
<stop offset="0.39519" stop-color="#FFF249" stop-opacity="0"/>
</radialGradient>
<radialGradient id="paint9_radial_18_14837" cx="0" cy="0" r="1" gradientUnits="userSpaceOnUse" gradientTransform="translate(26 10.5) rotate(3.57634) scale(8.01561 2.16214)">
<stop offset="0.26571" stop-color="#FFF249"/>
<stop offset="0.807393" stop-color="#FFF249" stop-opacity="0"/>
</radialGradient>
<radialGradient id="paint10_radial_18_14837" cx="0" cy="0" r="1" gradientUnits="userSpaceOnUse" gradientTransform="translate(19 4) rotate(74.4759) scale(9.34077 2.51959)">
<stop offset="0.26571" stop-color="#FFF249"/>
<stop offset="0.738695" stop-color="#FFF249" stop-opacity="0"/>
</radialGradient>
<radialGradient id="paint11_radial_18_14837" cx="0" cy="0" r="1" gradientUnits="userSpaceOnUse" gradientTransform="translate(26 28) rotate(-98.5308) scale(10.1119 2.72758)">
<stop offset="0.26571" stop-color="#FFF249"/>
<stop offset="0.738695" stop-color="#FFF249" stop-opacity="0"/>
</radialGradient>
<radialGradient id="paint12_radial_18_14837" cx="0" cy="0" r="1" gradientUnits="userSpaceOnUse" gradientTransform="translate(14 3.5) rotate(116.565) scale(10.0623 2.57148)">
<stop offset="0.0888889" stop-color="#B58B32"/>
<stop offset="0.933333" stop-color="#B58B32" stop-opacity="0"/>
</radialGradient>
<radialGradient id="paint13_radial_18_14837" cx="0" cy="0" r="1" gradientUnits="userSpaceOnUse" gradientTransform="translate(2.5 14.5) rotate(48.0128) scale(13.4536 4.78031)">
<stop offset="0.121202" stop-color="#B58B32"/>
<stop offset="0.758978" stop-color="#B58B32" stop-opacity="0"/>
</radialGradient>
<radialGradient id="paint14_radial_18_14837" cx="0" cy="0" r="1" gradientUnits="userSpaceOnUse" gradientTransform="translate(7 24) rotate(100.62) scale(8.13941 3.35943)">
<stop offset="0.121202" stop-color="#B58B32"/>
<stop offset="0.863208" stop-color="#B58B32" stop-opacity="0"/>
</radialGradient>
<radialGradient id="paint15_radial_18_14837" cx="0" cy="0" r="1" gradientUnits="userSpaceOnUse" gradientTransform="translate(12.5 28.5) rotate(153.435) scale(7.82624 3.77337)">
<stop offset="0.121202" stop-color="#C6913B"/>
<stop offset="0.957143" stop-color="#C6913B" stop-opacity="0"/>
</radialGradient>
<radialGradient id="paint16_radial_18_14837" cx="0" cy="0" r="1" gradientUnits="userSpaceOnUse" gradientTransform="translate(19.5 28) rotate(28.3007) scale(7.38241 2.68374)">
<stop offset="0.121202" stop-color="#B48A32"/>
<stop offset="0.738695" stop-color="#B48A32" stop-opacity="0"/>
</radialGradient>
<radialGradient id="paint17_radial_18_14837" cx="0" cy="0" r="1" gradientUnits="userSpaceOnUse" gradientTransform="translate(6.5 29) rotate(119.745) scale(4.03113 5.05829)">
<stop offset="0.144231" stop-color="#B58B32"/>
<stop offset="0.738695" stop-color="#B58B32" stop-opacity="0"/>
</radialGradient>
<radialGradient id="paint18_radial_18_14837" cx="0" cy="0" r="1" gradientUnits="userSpaceOnUse" gradientTransform="translate(29.5 11) rotate(-29.7449) scale(4.03113 4.67456)">
<stop offset="0.0027979" stop-color="#FFF249"/>
<stop offset="0.686538" stop-color="#FFF249" stop-opacity="0"/>
</radialGradient>
<radialGradient id="paint19_radial_18_14837" cx="0" cy="0" r="1" gradientUnits="userSpaceOnUse" gradientTransform="translate(27.5 16.5) rotate(45) scale(3.53553 8.60821)">
<stop offset="0.125" stop-color="#E0AE33"/>
<stop offset="0.95" stop-color="#E0AE33" stop-opacity="0"/>
</radialGradient>
<radialGradient id="paint20_radial_18_14837" cx="0" cy="0" r="1" gradientUnits="userSpaceOnUse" gradientTransform="translate(28 17) rotate(45) scale(2.82843 9.68313)">
<stop offset="0.234947" stop-color="#E5BD42"/>
<stop offset="0.693004" stop-color="#E5BD42" stop-opacity="0"/>
</radialGradient>
</defs>
</svg>